<?xml version='1.0' encoding='utf-8'?>
<mlt title="Anonymous Submission" version="0.9.0" root="/home/pierre" LC_NUMERIC="de_DE.UTF-8">
 <profile width="1280" display_aspect_den="9" colorspace="709" frame_rate_den="1" description="HD 720p 30 fps" height="720" display_aspect_num="16" frame_rate_num="30" progressive="1" sample_aspect_num="1" sample_aspect_den="1"/>
 <producer in="0" out="22615" id="black">
  <property name="mlt_type">producer</property>
  <property name="length">22616</property>
  <property name="eof">pause</property>
  <property name="resource">black</property>
  <property name="aspect_ratio">0</property>
  <property name="mlt_service">colour</property>
 </producer>
 <playlist id="black_track">
  <entry in="0" out="13303" producer="black"/>
 </playlist>
 <producer in="0" out="3403" id="32_4">
  <property name="mlt_type">producer</property>
  <property name="length">3404</property>
  <property name="eof">pause</property>
  <property name="resource">/media/pierre/f2acf327-5be3-45a0-8262-ba72038981cf/home/pierre/Data_April2015/Musik/Popmusik und Jazz/Aktuelle Musik/XX - Space.mp3</property>
  <property name="meta.media.nb_streams">1</property>
  <property name="meta.media.0.stream.type">audio</property>
  <property name="meta.media.0.codec.sample_fmt">s16p</property>
  <property name="meta.media.0.codec.sample_rate">44100</property>
  <property name="meta.media.0.codec.channels">2</property>
  <property name="meta.media.0.codec.name">mp3</property>
  <property name="meta.media.0.codec.long_name">MP3 (MPEG audio layer 3)</property>
  <property name="meta.media.0.codec.bit_rate">226976</property>
  <property name="meta.attr.encoded_by.markup">tunebite</property>
  <property name="meta.attr.title.markup">Space</property>
  <property name="meta.attr.artist.markup">XX</property>
  <property name="meta.attr.genre.markup">Alternative</property>
  <property name="meta.attr.album.markup">Vacuum Pact</property>
  <property name="meta.attr.track.markup">11</property>
  <property name="meta.attr.date.markup">2006</property>
  <property name="seekable">1</property>
  <property name="audio_index">0</property>
  <property name="video_index">-1</property>
  <property name="mlt_service">avformat</property>
 </producer>
 <playlist id="playlist1">
  <blank length="10338"/>
  <entry in="0" out="2965" producer="32_4">
   <filter out="255" id="fadein">
    <property name="track">0</property>
    <property name="window">75</property>
    <property name="max_gain">20dB</property>
    <property name="mlt_type">filter</property>
    <property name="mlt_service">volume</property>
    <property name="kdenlive_id">fadein</property>
    <property name="tag">volume</property>
    <property name="kdenlive_ix">1</property>
    <property name="gain">0</property>
    <property name="end">1</property>
    <property name="kdenlive_info"/>
   </filter>
   <filter in="2761" out="2965" id="fadeout">
    <property name="track">0</property>
    <property name="window">75</property>
    <property name="max_gain">20dB</property>
    <property name="mlt_type">filter</property>
    <property name="mlt_service">volume</property>
    <property name="kdenlive_id">fadeout</property>
    <property name="tag">volume</property>
    <property name="kdenlive_ix">2</property>
    <property name="gain">1</property>
    <property name="end">0</property>
    <property name="kdenlive_info"/>
   </filter>
  </entry>
 </playlist>
 <producer in="0" out="10525" id="28_3">
  <property name="mlt_type">producer</property>
  <property name="length">10526</property>
  <property name="eof">pause</property>
  <property name="resource">/media/pierre/f2acf327-5be3-45a0-8262-ba72038981cf/home/pierre/Data_April2015/Musik/Popmusik und Jazz/Aktuelle Musik/XX - Six Pack.mp3</property>
  <property name="meta.media.nb_streams">1</property>
  <property name="meta.media.0.stream.type">audio</property>
  <property name="meta.media.0.codec.sample_fmt">s16p</property>
  <property name="meta.media.0.codec.sample_rate">44100</property>
  <property name="meta.media.0.codec.channels">2</property>
  <property name="meta.media.0.codec.name">mp3</property>
  <property name="meta.media.0.codec.long_name">MP3 (MPEG audio layer 3)</property>
  <property name="meta.media.0.codec.bit_rate">223816</property>
  <property name="meta.attr.encoded_by.markup">tunebite</property>
  <property name="meta.attr.title.markup">Six Pack</property>
  <property name="meta.attr.artist.markup">XX</property>
  <property name="meta.attr.genre.markup">Alternative</property>
  <property name="meta.attr.album.markup">Vacuum Pact</property>
  <property name="meta.attr.track.markup">5</property>
  <property name="meta.attr.date.markup">2006</property>
  <property name="seekable">1</property>
  <property name="audio_index">0</property>
  <property name="video_index">-1</property>
  <property name="mlt_service">avformat</property>
 </producer>
 <playlist id="playlist2">
  <entry in="0" out="10525" producer="28_3">
   <filter out="132" id="filter0">
    <property name="track">0</property>
    <property name="window">75</property>
    <property name="max_gain">20dB</property>
    <property name="mlt_type">filter</property>
    <property name="mlt_service">volume</property>
    <property name="kdenlive_id">fadein</property>
    <property name="tag">volume</property>
    <property name="kdenlive_ix">1</property>
    <property name="gain">0</property>
    <property name="end">1</property>
    <property name="kdenlive_info"/>
   </filter>
   <filter in="10130" out="10525" id="filter1">
    <property name="track">0</property>
    <property name="window">75</property>
    <property name="max_gain">20dB</property>
    <property name="mlt_type">filter</property>
    <property name="mlt_service">volume</property>
    <property name="kdenlive_id">fadeout</property>
    <property name="tag">volume</property>
    <property name="kdenlive_ix">2</property>
    <property name="gain">1</property>
    <property name="end">0</property>
    <property name="kdenlive_info"/>
   </filter>
  </entry>
 </playlist>
 <playlist id="playlist3"/>
 <producer in="0" out="73392" id="slowmotion:2:0,3">
  <property name="mlt_type">producer</property>
  <property name="length">73393</property>
  <property name="eof">pause</property>
  <property name="resource">Desktop/TestX.mp4?0,3</property>
  <property name="aspect_ratio">1</property>
  <property name="mlt_service">framebuffer</property>
 </producer>
 <producer in="0" out="22017" id="2">
  <property name="mlt_type">producer</property>
  <property name="length">22018</property>
  <property name="eof">pause</property>
  <property name="resource">Desktop/TestX.mp4</property>
  <property name="meta.media.nb_streams">1</property>
  <property name="meta.media.0.stream.type">video</property>
  <property name="meta.media.0.stream.frame_rate">20</property>
  <property name="meta.media.0.stream.sample_aspect_ratio">0</property>
  <property name="meta.media.0.codec.width">1890</property>
  <property name="meta.media.0.codec.height">1178</property>
  <property name="meta.media.0.codec.frame_rate">20</property>
  <property name="meta.media.0.codec.pix_fmt">yuv420p</property>
  <property name="meta.media.0.codec.sample_aspect_ratio">1</property>
  <property name="meta.media.0.codec.colorspace">709</property>
  <property name="meta.media.0.codec.name">h264</property>
  <property name="meta.media.0.codec.long_name">H.264 / AVC / MPEG-4 AVC / MPEG-4 part 10</property>
  <property name="meta.media.0.codec.bit_rate">959544</property>
  <property name="meta.attr.major_brand.markup">isom</property>
  <property name="meta.attr.minor_version.markup">512</property>
  <property name="meta.attr.compatible_brands.markup">isomiso2avc1mp41</property>
  <property name="meta.attr.encoder.markup">Lavf54.20.4</property>
  <property name="seekable">1</property>
  <property name="meta.media.sample_aspect_num">1</property>
  <property name="meta.media.sample_aspect_den">1</property>
  <property name="aspect_ratio">1</property>
  <property name="audio_index">-1</property>
  <property name="video_index">0</property>
  <property name="mlt_service">avformat</property>
  <property name="meta.media.frame_rate_num">20</property>
  <property name="meta.media.frame_rate_den">1</property>
  <property name="meta.media.colorspace">709</property>
  <property name="meta.media.width">1890</property>
  <property name="meta.media.height">1178</property>
  <property name="meta.media.top_field_first">0</property>
  <property name="meta.media.progressive">1</property>
 </producer>
 <playlist id="playlist4">
  <blank length="312"/>
  <entry in="0" out="112" producer="slowmotion:2:0,3"/>
  <blank length="1359"/>
  <entry in="2280" out="2383" producer="2"/>
  <blank length="1167"/>
  <entry in="3412" out="3895" producer="2"/>
 </playlist>
 <producer in="0" out="149" id="3">
  <property name="mlt_type">producer</property>
  <property name="length">150</property>
  <property name="eof">pause</property>
  <property name="resource"/>
  <property name="progressive">1</property>
  <property name="mlt_service">kdenlivetitle</property>
  <property name="xmldata">&lt;kdenlivetitle width="1280" duration="150" height="720" LC_NUMERIC="de_DE.UTF-8">
 &lt;item z-index="0" type="QGraphicsTextItem">
  &lt;position x="333" y="308">
   &lt;transform>1,0,0,0,1,0,0,0,1&lt;/transform>
  &lt;/position>
  &lt;content font-color="255,255,255,255" font-outline-color="0,0,0,255" font-pixel-size="40" font-italic="0" alignment="4" font-underline="0" font-weight="50" font="DejaVu Sans" font-outline="0">A non-graphical user interface
for ROI selection&lt;/content>
 &lt;/item>
 &lt;startviewport rect="0,0,1280,720"/>
 &lt;endviewport rect="0,0,1280,720"/>
 &lt;background color="0,0,0,0"/>
&lt;/kdenlivetitle>
</property>
  <property name="force_reload">0</property>
 </producer>
 <producer in="0" out="149" id="26">
  <property name="mlt_type">producer</property>
  <property name="length">150</property>
  <property name="eof">pause</property>
  <property name="resource"/>
  <property name="progressive">1</property>
  <property name="mlt_service">kdenlivetitle</property>
  <property name="xmldata">&lt;kdenlivetitle width="1280" duration="150" height="720" LC_NUMERIC="de_DE.UTF-8">
 &lt;item z-index="1" type="QGraphicsTextItem">
  &lt;position x="96" y="230">
   &lt;transform>1,0,0,0,1,0,0,0,1&lt;/transform>
  &lt;/position>
  &lt;content font-color="255,255,255,255" font-outline-color="0,0,0,255" font-pixel-size="30" font-italic="0" alignment="4" font-underline="0" font-weight="50" font="DejaVu Sans" font-outline="0">Principle

The anatomy is loaded as a simple imagesc() in Matlab.

Instead of buttons, the user interface consists of callback functions.

This method keeps the program small, transparent and easy to modify.&lt;/content>
 &lt;/item>
 &lt;startviewport rect="0,0,1280,720"/>
 &lt;endviewport rect="0,0,1280,720"/>
 &lt;background color="0,0,0,195"/>
&lt;/kdenlivetitle>
</property>
  <property name="force_reload">0</property>
 </producer>
 <producer in="0" out="149" id="27">
  <property name="mlt_type">producer</property>
  <property name="length">150</property>
  <property name="eof">pause</property>
  <property name="resource"/>
  <property name="progressive">1</property>
  <property name="mlt_service">kdenlivetitle</property>
  <property name="xmldata">&lt;kdenlivetitle width="1280" duration="150" height="720" LC_NUMERIC="de_DE.UTF-8">
 &lt;item z-index="1" type="QGraphicsTextItem">
  &lt;position x="613,280701754386" y="81,4912280701754">
   &lt;transform>1,0,0,0,1,0,0,0,1&lt;/transform>
  &lt;/position>
  &lt;content font-color="255,255,255,255" font-outline-color="0,0,0,255" font-pixel-size="30" font-italic="0" font-underline="0" font-weight="50" font="DejaVu Sans" font-outline="0">q
r
w
e
y
t

f + freehand drawing
z + click on neuron
x + click on neuron

d + click on neuron
g + click on new centroid of neuron

p + click on ROI
j
v + click on ROI used for correlation map&lt;/content>
 &lt;/item>
 &lt;item z-index="0" type="QGraphicsTextItem">
  &lt;position x="73,68421052631581" y="11,31578947368422">
   &lt;transform>1,0,0,0,1,0,0,0,1&lt;/transform>
  &lt;/position>
  &lt;content font-color="255,255,255,255" font-outline-color="0,0,0,255" font-pixel-size="30" font-italic="0" font-underline="0" font-weight="50" font="DejaVu Sans" font-outline="0">List of most important callbacks:                            

show anatomy
show anatomy with ROI overlay
show dF/F map
show dF/F maximum map
show local correlations map
show ROIs

freehand select
circular ROI select
correlation-based select

delete ROI
translate ROI

show timetrace of ROI
show all timetraces
show global correlation map&lt;/content>
 &lt;/item>
 &lt;startviewport rect="0,0,1280,720"/>
 &lt;endviewport rect="0,0,1280,720"/>
 &lt;background color="0,0,0,195"/>
&lt;/kdenlivetitle>
</property>
  <property name="force_reload">0</property>
 </producer>
 <producer in="0" out="149" id="4">
  <property name="mlt_type">producer</property>
  <property name="length">150</property>
  <property name="eof">pause</property>
  <property name="resource"/>
  <property name="progressive">1</property>
  <property name="mlt_service">kdenlivetitle</property>
  <property name="xmldata">&lt;kdenlivetitle width="1280" duration="150" height="720" LC_NUMERIC="de_DE.UTF-8">
 &lt;item z-index="0" type="QGraphicsTextItem">
  &lt;position x="219,6680891415706" y="164,4324324323108">
   &lt;transform>1,0,0,0,1,0,0,0,1&lt;/transform>
  &lt;/position>
  &lt;content font-color="255,255,255,255" font-outline-color="0,0,0,255" font-pixel-size="30" font-italic="0" font-underline="0" font-weight="50" font="DejaVu Sans" font-outline="0">mouse and keystroke recorder&lt;/content>
 &lt;/item>
 &lt;startviewport rect="0,0,1280,720"/>
 &lt;endviewport rect="0,0,1280,720"/>
 &lt;background color="0,0,0,0"/>
&lt;/kdenlivetitle>
</property>
  <property name="force_reload">0</property>
 </producer>
 <producer in="0" out="149" id="5">
  <property name="mlt_type">producer</property>
  <property name="length">150</property>
  <property name="eof">pause</property>
  <property name="resource"/>
  <property name="progressive">1</property>
  <property name="mlt_service">kdenlivetitle</property>
  <property name="xmldata">&lt;kdenlivetitle width="1280" duration="150" height="720" LC_NUMERIC="de_DE.UTF-8">
 &lt;item z-index="0" type="QGraphicsTextItem">
  &lt;position x="542" y="338">
   &lt;transform>1,0,0,0,1,0,0,0,1&lt;/transform>
  &lt;/position>
  &lt;content font-color="255,255,255,255" font-outline-color="0,0,0,255" font-pixel-size="30" font-italic="0" font-underline="0" font-weight="50" font="DejaVu Sans" font-outline="0">load dataset&lt;/content>
 &lt;/item>
 &lt;startviewport rect="0,0,1280,720"/>
 &lt;endviewport rect="0,0,1280,720"/>
 &lt;background color="0,0,0,0"/>
&lt;/kdenlivetitle>
</property>
  <property name="force_reload">0</property>
 </producer>
 <producer in="0" out="149" id="6">
  <property name="mlt_type">producer</property>
  <property name="length">150</property>
  <property name="eof">pause</property>
  <property name="resource"/>
  <property name="progressive">1</property>
  <property name="mlt_service">kdenlivetitle</property>
  <property name="xmldata">&lt;kdenlivetitle width="1280" duration="150" height="720" LC_NUMERIC="de_DE.UTF-8">
 &lt;item z-index="0" type="QGraphicsTextItem">
  &lt;position x="521" y="338">
   &lt;transform>1,0,0,0,1,0,0,0,1&lt;/transform>
  &lt;/position>
  &lt;content font-color="255,255,255,255" font-outline-color="0,0,0,255" font-pixel-size="30" font-italic="0" font-underline="0" font-weight="50" font="DejaVu Sans" font-outline="0">calculate offset&lt;/content>
 &lt;/item>
 &lt;startviewport rect="0,0,1280,720"/>
 &lt;endviewport rect="0,0,1280,720"/>
 &lt;background color="0,0,0,0"/>
&lt;/kdenlivetitle>
</property>
  <property name="force_reload">0</property>
 </producer>
 <producer in="0" out="149" id="7">
  <property name="mlt_type">producer</property>
  <property name="length">150</property>
  <property name="eof">pause</property>
  <property name="resource"/>
  <property name="progressive">1</property>
  <property name="mlt_service">kdenlivetitle</property>
  <property name="xmldata">&lt;kdenlivetitle width="1280" duration="150" height="720" LC_NUMERIC="de_DE.UTF-8">
 &lt;item z-index="0" type="QGraphicsTextItem">
  &lt;position x="486" y="338">
   &lt;transform>1,0,0,0,1,0,0,0,1&lt;/transform>
  &lt;/position>
  &lt;content font-color="255,255,255,255" font-outline-color="0,0,0,255" font-pixel-size="30" font-italic="0" font-underline="0" font-weight="50" font="DejaVu Sans" font-outline="0">calculate dF/F maps&lt;/content>
 &lt;/item>
 &lt;startviewport rect="0,0,1280,720"/>
 &lt;endviewport rect="0,0,1280,720"/>
 &lt;background color="0,0,0,0"/>
&lt;/kdenlivetitle>
</property>
  <property name="force_reload">0</property>
 </producer>
 <producer in="0" out="149" id="8">
  <property name="mlt_type">producer</property>
  <property name="length">150</property>
  <property name="eof">pause</property>
  <property name="resource"/>
  <property name="progressive">1</property>
  <property name="mlt_service">kdenlivetitle</property>
  <property name="xmldata">&lt;kdenlivetitle width="1280" duration="150" height="720" LC_NUMERIC="de_DE.UTF-8">
 &lt;item z-index="0" type="QGraphicsTextItem">
  &lt;position x="393" y="338">
   &lt;transform>1,0,0,0,1,0,0,0,1&lt;/transform>
  &lt;/position>
  &lt;content font-color="255,255,255,255" font-outline-color="0,0,0,255" font-pixel-size="30" font-italic="0" font-underline="0" font-weight="50" font="DejaVu Sans" font-outline="0">select F0 and response windows&lt;/content>
 &lt;/item>
 &lt;startviewport rect="0,0,1280,720"/>
 &lt;endviewport rect="0,0,1280,720"/>
 &lt;background color="0,0,0,0"/>
&lt;/kdenlivetitle>
</property>
  <property name="force_reload">0</property>
 </producer>
 <producer in="0" out="149" id="9">
  <property name="mlt_type">producer</property>
  <property name="length">150</property>
  <property name="eof">pause</property>
  <property name="resource"/>
  <property name="progressive">1</property>
  <property name="mlt_service">kdenlivetitle</property>
  <property name="xmldata">&lt;kdenlivetitle width="1280" duration="150" height="720" LC_NUMERIC="de_DE.UTF-8">
 &lt;item z-index="0" type="QGraphicsTextItem">
  &lt;position x="319" y="338">
   &lt;transform>1,0,0,0,1,0,0,0,1&lt;/transform>
  &lt;/position>
  &lt;content font-color="255,255,255,255" font-outline-color="0,0,0,255" font-pixel-size="30" font-italic="0" font-underline="0" font-weight="50" font="DejaVu Sans" font-outline="0">calculate map of local activity correlations&lt;/content>
 &lt;/item>
 &lt;startviewport rect="0,0,1280,720"/>
 &lt;endviewport rect="0,0,1280,720"/>
 &lt;background color="0,0,0,0"/>
&lt;/kdenlivetitle>
</property>
  <property name="force_reload">0</property>
 </producer>
 <producer in="0" out="149" id="10">
  <property name="mlt_type">producer</property>
  <property name="length">150</property>
  <property name="eof">pause</property>
  <property name="resource"/>
  <property name="progressive">1</property>
  <property name="mlt_service">kdenlivetitle</property>
  <property name="xmldata">&lt;kdenlivetitle width="1280" duration="150" height="720" LC_NUMERIC="de_DE.UTF-8">
 &lt;item z-index="0" type="QGraphicsTextItem">
  &lt;position x="276" y="320">
   &lt;transform>1,0,0,0,1,0,0,0,1&lt;/transform>
  &lt;/position>
  &lt;content font-color="255,255,255,255" font-outline-color="0,0,0,255" font-pixel-size="30" font-italic="0" alignment="4" font-underline="0" font-weight="50" font="DejaVu Sans" font-outline="0">main part: show anatomy map for ROI selection
includde keystroke callback functions&lt;/content>
 &lt;/item>
 &lt;startviewport rect="0,0,1280,720"/>
 &lt;endviewport rect="0,0,1280,720"/>
 &lt;background color="0,0,0,0"/>
&lt;/kdenlivetitle>
</property>
  <property name="force_reload">0</property>
 </producer>
 <producer in="0" out="149" id="11">
  <property name="mlt_type">producer</property>
  <property name="length">150</property>
  <property name="eof">pause</property>
  <property name="resource"/>
  <property name="progressive">1</property>
  <property name="mlt_service">kdenlivetitle</property>
  <property name="xmldata">&lt;kdenlivetitle width="1280" duration="150" height="720" LC_NUMERIC="de_DE.UTF-8">
 &lt;item z-index="0" type="QGraphicsTextItem">
  &lt;position x="414" y="320">
   &lt;transform>1,0,0,0,1,0,0,0,1&lt;/transform>
  &lt;/position>
  &lt;content font-color="255,255,255,255" font-outline-color="0,0,0,255" font-pixel-size="30" font-italic="0" alignment="4" font-underline="0" font-weight="50" font="DejaVu Sans" font-outline="0">use mouse keys and wheel to
pan, zoom and zoom out&lt;/content>
 &lt;/item>
 &lt;startviewport rect="0,0,1280,720"/>
 &lt;endviewport rect="0,0,1280,720"/>
 &lt;background color="0,0,0,0"/>
&lt;/kdenlivetitle>
</property>
  <property name="force_reload">0</property>
 </producer>
 <producer in="0" out="149" id="12">
  <property name="mlt_type">producer</property>
  <property name="length">150</property>
  <property name="eof">pause</property>
  <property name="resource"/>
  <property name="progressive">1</property>
  <property name="mlt_service">kdenlivetitle</property>
  <property name="xmldata">&lt;kdenlivetitle width="1280" duration="150" height="720" LC_NUMERIC="de_DE.UTF-8">
 &lt;item z-index="0" type="QGraphicsTextItem">
  &lt;position x="298" y="338">
   &lt;transform>1,0,0,0,1,0,0,0,1&lt;/transform>
  &lt;/position>
  &lt;content font-color="255,255,255,255" font-outline-color="0,0,0,255" font-pixel-size="30" font-italic="0" font-underline="0" font-weight="50" font="DejaVu Sans" font-outline="0">show activity maps to facilitate ROI selection&lt;/content>
 &lt;/item>
 &lt;startviewport rect="0,0,1280,720"/>
 &lt;endviewport rect="0,0,1280,720"/>
 &lt;background color="0,0,0,0"/>
&lt;/kdenlivetitle>
</property>
  <property name="force_reload">0</property>
 </producer>
 <producer in="0" out="149" id="13">
  <property name="mlt_type">producer</property>
  <property name="length">150</property>
  <property name="eof">pause</property>
  <property name="resource"/>
  <property name="progressive">1</property>
  <property name="mlt_service">kdenlivetitle</property>
  <property name="xmldata">&lt;kdenlivetitle width="1280" duration="150" height="720" LC_NUMERIC="de_DE.UTF-8">
 &lt;item z-index="0" type="QGraphicsTextItem">
  &lt;position x="893,1021885366673" y="660,1612138454515">
   &lt;transform>1,0,0,0,1,0,0,0,1&lt;/transform>
  &lt;/position>
  &lt;content font-color="0,0,0,255" font-pixel-size="30" font-italic="0" font-underline="0" font-weight="50" font="DejaVu Sans">dF/F response map&lt;/content>
 &lt;/item>
 &lt;startviewport rect="0,0,1280,720"/>
 &lt;endviewport rect="0,0,1280,720"/>
 &lt;background color="0,0,0,0"/>
&lt;/kdenlivetitle>
</property>
  <property name="force_reload">0</property>
 </producer>
 <producer in="0" out="149" id="14">
  <property name="mlt_type">producer</property>
  <property name="length">150</property>
  <property name="eof">pause</property>
  <property name="resource"/>
  <property name="progressive">1</property>
  <property name="mlt_service">kdenlivetitle</property>
  <property name="xmldata">&lt;kdenlivetitle width="1280" duration="150" height="720" LC_NUMERIC="de_DE.UTF-8">
 &lt;item z-index="0" type="QGraphicsTextItem">
  &lt;position x="419,2735893788659" y="667,2095779991869">
   &lt;transform>1,0,0,0,1,0,0,0,1&lt;/transform>
  &lt;/position>
  &lt;content font-color="0,0,0,255" font-pixel-size="30" font-italic="0" font-underline="0" font-weight="50" font="DejaVu Sans">dF/F response map (maximum of moving window)&lt;/content>
 &lt;/item>
 &lt;startviewport rect="0,0,1280,720"/>
 &lt;endviewport rect="0,0,1280,720"/>
 &lt;background color="0,0,0,0"/>
&lt;/kdenlivetitle>
</property>
  <property name="force_reload">0</property>
 </producer>
 <producer in="0" out="149" id="15">
  <property name="mlt_type">producer</property>
  <property name="length">150</property>
  <property name="eof">pause</property>
  <property name="resource"/>
  <property name="progressive">1</property>
  <property name="mlt_service">kdenlivetitle</property>
  <property name="xmldata">&lt;kdenlivetitle width="1280" duration="150" height="720" LC_NUMERIC="de_DE.UTF-8">
 &lt;item z-index="0" type="QGraphicsTextItem">
  &lt;position x="775,4385964912282" y="665,7017543859649">
   &lt;transform>1,0,0,0,1,0,0,0,1&lt;/transform>
  &lt;/position>
  &lt;content font-color="0,0,0,255" font-outline-color="0,0,0,255" font-pixel-size="30" font-italic="0" font-underline="0" font-weight="50" font="DejaVu Sans" font-outline="0">map of local correlations&lt;/content>
 &lt;/item>
 &lt;startviewport rect="0,0,1280,720"/>
 &lt;endviewport rect="0,0,1280,720"/>
 &lt;background color="0,0,0,0"/>
&lt;/kdenlivetitle>
</property>
  <property name="force_reload">0</property>
 </producer>
 <producer in="0" out="149" id="16">
  <property name="mlt_type">producer</property>
  <property name="length">150</property>
  <property name="eof">pause</property>
  <property name="resource"/>
  <property name="progressive">1</property>
  <property name="mlt_service">kdenlivetitle</property>
  <property name="xmldata">&lt;kdenlivetitle width="1280" duration="150" height="720" LC_NUMERIC="de_DE.UTF-8">
 &lt;item z-index="0" type="QGraphicsTextItem">
  &lt;position x="324" y="302">
   &lt;transform>1,0,0,0,1,0,0,0,1&lt;/transform>
  &lt;/position>
  &lt;content font-color="255,255,255,255" font-outline-color="0,0,0,255" font-pixel-size="30" font-italic="0" alignment="4" font-underline="0" font-weight="50" font="DejaVu Sans" font-outline="0">normally work with two screens:
one for displaying the map/anatomy
another for visualizing the extracted data&lt;/content>
 &lt;/item>
 &lt;startviewport rect="0,0,1280,720"/>
 &lt;endviewport rect="0,0,1280,720"/>
 &lt;background color="0,0,0,0"/>
&lt;/kdenlivetitle>
</property>
  <property name="force_reload">0</property>
 </producer>
 <producer in="0" out="149" id="17">
  <property name="mlt_type">producer</property>
  <property name="length">150</property>
  <property name="eof">pause</property>
  <property name="resource"/>
  <property name="progressive">1</property>
  <property name="mlt_service">kdenlivetitle</property>
  <property name="xmldata">&lt;kdenlivetitle width="1280" duration="150" height="720" LC_NUMERIC="de_DE.UTF-8">
 &lt;item z-index="0" type="QGraphicsTextItem">
  &lt;position x="288" y="320">
   &lt;transform>1,0,0,0,1,0,0,0,1&lt;/transform>
  &lt;/position>
  &lt;content font-color="255,255,255,255" font-outline-color="0,0,0,255" font-pixel-size="30" font-italic="0" alignment="4" font-underline="0" font-weight="50" font="DejaVu Sans" font-outline="0">use the keys f (freehand), x (correlation-based
and z (circle ROI) to draw a ROI&lt;/content>
 &lt;/item>
 &lt;startviewport rect="0,0,1280,720"/>
 &lt;endviewport rect="0,0,1280,720"/>
 &lt;background color="0,0,0,0"/>
&lt;/kdenlivetitle>
</property>
  <property name="force_reload">0</property>
 </producer>
 <producer in="0" out="149" id="18">
  <property name="mlt_type">producer</property>
  <property name="length">150</property>
  <property name="eof">pause</property>
  <property name="resource"/>
  <property name="progressive">1</property>
  <property name="mlt_service">kdenlivetitle</property>
  <property name="xmldata">&lt;kdenlivetitle width="1280" duration="150" height="720" LC_NUMERIC="de_DE.UTF-8">
 &lt;item z-index="0" type="QGraphicsTextItem">
  &lt;position x="285" y="320">
   &lt;transform>1,0,0,0,1,0,0,0,1&lt;/transform>
  &lt;/position>
  &lt;content font-color="255,255,255,255" font-outline-color="0,0,0,255" font-pixel-size="30" font-italic="0" alignment="4" font-underline="0" font-weight="50" font="DejaVu Sans" font-outline="0">switching between anatomy and activity maps
facilitates ROI selection&lt;/content>
 &lt;/item>
 &lt;startviewport rect="0,0,1280,720"/>
 &lt;endviewport rect="0,0,1280,720"/>
 &lt;background color="0,0,0,0"/>
&lt;/kdenlivetitle>
</property>
  <property name="force_reload">0</property>
 </producer>
 <producer in="0" out="149" id="19">
  <property name="mlt_type">producer</property>
  <property name="length">150</property>
  <property name="eof">pause</property>
  <property name="resource"/>
  <property name="progressive">1</property>
  <property name="mlt_service">kdenlivetitle</property>
  <property name="xmldata">&lt;kdenlivetitle width="1280" duration="150" height="720" LC_NUMERIC="de_DE.UTF-8">
 &lt;item z-index="0" type="QGraphicsTextItem">
  &lt;position x="200" y="320">
   &lt;transform>1,0,0,0,1,0,0,0,1&lt;/transform>
  &lt;/position>
  &lt;content font-color="255,255,255,255" font-pixel-size="30" font-italic="0" alignment="4" font-underline="0" font-weight="50" font="DejaVu Sans">correlation-based semi-automated ROI selection
with numbers, the target size of the ROI can be indicated&lt;/content>
 &lt;/item>
 &lt;startviewport rect="0,0,1280,720"/>
 &lt;endviewport rect="0,0,1280,720"/>
 &lt;background color="0,0,0,0"/>
&lt;/kdenlivetitle>
</property>
  <property name="force_reload">0</property>
 </producer>
 <producer in="0" out="149" id="20">
  <property name="mlt_type">producer</property>
  <property name="length">150</property>
  <property name="eof">pause</property>
  <property name="resource"/>
  <property name="progressive">1</property>
  <property name="mlt_service">kdenlivetitle</property>
  <property name="xmldata">&lt;kdenlivetitle width="1280" duration="150" height="720" LC_NUMERIC="de_DE.UTF-8">
 &lt;item z-index="0" type="QGraphicsTextItem">
  &lt;position x="309" y="320">
   &lt;transform>1,0,0,0,1,0,0,0,1&lt;/transform>
  &lt;/position>
  &lt;content font-color="255,255,255,255" font-outline-color="0,0,0,255" font-pixel-size="30" font-italic="0" alignment="4" font-underline="0" font-weight="50" font="DejaVu Sans" font-outline="0">circular ROI generation for quick analysis
numbers give the size of the circular region&lt;/content>
 &lt;/item>
 &lt;startviewport rect="0,0,1280,720"/>
 &lt;endviewport rect="0,0,1280,720"/>
 &lt;background color="0,0,0,0"/>
&lt;/kdenlivetitle>
</property>
  <property name="force_reload">0</property>
 </producer>
 <producer in="0" out="149" id="21">
  <property name="mlt_type">producer</property>
  <property name="length">150</property>
  <property name="eof">pause</property>
  <property name="resource"/>
  <property name="progressive">1</property>
  <property name="mlt_service">kdenlivetitle</property>
  <property name="xmldata">&lt;kdenlivetitle width="1280" duration="150" height="720" LC_NUMERIC="de_DE.UTF-8">
 &lt;item z-index="0" type="QGraphicsTextItem">
  &lt;position x="445" y="302">
   &lt;transform>1,0,0,0,1,0,0,0,1&lt;/transform>
  &lt;/position>
  &lt;content font-color="255,255,255,255" font-outline-color="0,0,0,255" font-pixel-size="30" font-italic="0" alignment="4" font-underline="0" font-weight="50" font="DejaVu Sans" font-outline="0">post-modification of ROIs
deletion (d)
small translation (g)&lt;/content>
 &lt;/item>
 &lt;startviewport rect="0,0,1280,720"/>
 &lt;endviewport rect="0,0,1280,720"/>
 &lt;background color="0,0,0,0"/>
&lt;/kdenlivetitle>
</property>
  <property name="force_reload">0</property>
 </producer>
 <producer in="0" out="149" id="22">
  <property name="mlt_type">producer</property>
  <property name="length">150</property>
  <property name="eof">pause</property>
  <property name="resource"/>
  <property name="progressive">1</property>
  <property name="mlt_service">kdenlivetitle</property>
  <property name="xmldata">&lt;kdenlivetitle width="1280" duration="150" height="720" LC_NUMERIC="de_DE.UTF-8">
 &lt;item z-index="0" type="QGraphicsTextItem">
  &lt;position x="523" y="338">
   &lt;transform>1,0,0,0,1,0,0,0,1&lt;/transform>
  &lt;/position>
  &lt;content font-color="255,255,255,255" font-outline-color="0,0,0,255" font-pixel-size="30" font-italic="0" font-underline="0" font-weight="50" font="DejaVu Sans" font-outline="0">customizations&lt;/content>
 &lt;/item>
 &lt;startviewport rect="0,0,1280,720"/>
 &lt;endviewport rect="0,0,1280,720"/>
 &lt;background color="0,0,0,0"/>
&lt;/kdenlivetitle>
</property>
  <property name="force_reload">0</property>
 </producer>
 <producer in="0" out="149" id="23">
  <property name="mlt_type">producer</property>
  <property name="length">150</property>
  <property name="eof">pause</property>
  <property name="resource"/>
  <property name="progressive">1</property>
  <property name="mlt_service">kdenlivetitle</property>
  <property name="xmldata">&lt;kdenlivetitle width="1280" duration="150" height="720" LC_NUMERIC="de_DE.UTF-8">
 &lt;item z-index="0" type="QGraphicsTextItem">
  &lt;position x="361" y="338">
   &lt;transform>1,0,0,0,1,0,0,0,1&lt;/transform>
  &lt;/position>
  &lt;content font-color="255,255,255,255" font-outline-color="0,0,0,255" font-pixel-size="30" font-italic="0" font-underline="0" font-weight="50" font="DejaVu Sans" font-outline="0">save the data by closing the window&lt;/content>
 &lt;/item>
 &lt;startviewport rect="0,0,1280,720"/>
 &lt;endviewport rect="0,0,1280,720"/>
 &lt;background color="0,0,0,0"/>
&lt;/kdenlivetitle>
</property>
  <property name="force_reload">0</property>
 </producer>
 <producer in="0" out="149" id="24">
  <property name="mlt_type">producer</property>
  <property name="length">150</property>
  <property name="eof">pause</property>
  <property name="resource"/>
  <property name="progressive">1</property>
  <property name="mlt_service">kdenlivetitle</property>
  <property name="xmldata">&lt;kdenlivetitle width="1280" duration="150" height="720" LC_NUMERIC="de_DE.UTF-8">
 &lt;item z-index="0" type="QGraphicsTextItem">
  &lt;position x="306" y="320">
   &lt;transform>1,0,0,0,1,0,0,0,1&lt;/transform>
  &lt;/position>
  &lt;content font-color="255,255,255,255" font-outline-color="0,0,0,255" font-pixel-size="30" font-italic="0" alignment="4" font-underline="0" font-weight="50" font="DejaVu Sans" font-outline="0">this saves the ROI map, the dF/F timetraces
and the raw fluorescence timetraces&lt;/content>
 &lt;/item>
 &lt;startviewport rect="0,0,1280,720"/>
 &lt;endviewport rect="0,0,1280,720"/>
 &lt;background color="0,0,0,0"/>
&lt;/kdenlivetitle>
</property>
  <property name="force_reload">0</property>
 </producer>
 <producer in="0" out="149" id="25">
  <property name="mlt_type">producer</property>
  <property name="length">150</property>
  <property name="eof">pause</property>
  <property name="resource"/>
  <property name="progressive">1</property>
  <property name="mlt_service">kdenlivetitle</property>
  <property name="xmldata">&lt;kdenlivetitle width="1280" duration="150" height="720" LC_NUMERIC="de_DE.UTF-8">
 &lt;item z-index="0" type="QGraphicsTextItem">
  &lt;position x="340" y="338">
   &lt;transform>1,0,0,0,1,0,0,0,1&lt;/transform>
  &lt;/position>
  &lt;content font-color="255,255,255,255" font-outline-color="0,0,0,255" font-pixel-size="30" font-italic="0" font-underline="0" font-weight="50" font="DejaVu Sans" font-outline="0">any questions? peter.rupprecht@fmi.ch&lt;/content>
 &lt;/item>
 &lt;startviewport rect="0,0,1280,720"/>
 &lt;endviewport rect="0,0,1280,720"/>
 &lt;background color="0,0,0,0"/>
&lt;/kdenlivetitle>
</property>
  <property name="force_reload">0</property>
 </producer>
 <playlist id="playlist5">
  <entry in="0" out="87" producer="3"/>
  <entry in="0" out="113" producer="26"/>
  <entry in="0" out="149" producer="27"/>
  <entry in="40" out="84" producer="4"/>
  <entry in="34" out="121" producer="2"/>
  <entry in="0" out="45" producer="5"/>
  <entry in="122" out="698" producer="2"/>
  <entry in="0" out="39" producer="6"/>
  <entry in="699" out="857" producer="2"/>
  <entry in="0" out="41" producer="7"/>
  <entry in="858" out="913" producer="2"/>
  <entry in="0" out="35" producer="8"/>
  <entry in="1028" out="1173" producer="2"/>
  <entry in="0" out="42" producer="9"/>
  <entry in="1231" out="1399" producer="2"/>
  <blank length="89"/>
  <entry in="0" out="47" producer="10"/>
  <entry in="2384" out="2503" producer="2"/>
  <entry in="2514" out="2754" producer="2"/>
  <entry in="0" out="48" producer="11"/>
  <entry in="2755" out="3411" producer="2"/>
  <entry in="0" out="51" producer="12"/>
  <blank length="47"/>
  <entry in="47" out="110" producer="13"/>
  <blank length="116"/>
  <entry in="0" out="15" producer="14"/>
  <blank length="89"/>
  <entry in="0" out="53" producer="15"/>
  <blank length="98"/>
  <entry in="0" out="75" producer="16"/>
  <entry in="3896" out="3942" producer="2"/>
  <entry in="4212" out="4373" producer="2"/>
  <entry in="0" out="61" producer="17"/>
  <entry in="4374" out="4537" producer="2"/>
  <entry in="4699" out="5315" producer="2"/>
  <entry in="0" out="56" producer="18"/>
  <entry in="5316" out="7293" producer="2"/>
  <entry in="0" out="62" producer="19"/>
  <entry in="7294" out="7368" producer="2"/>
  <entry in="7507" out="7588" producer="2"/>
  <entry in="8133" out="9331" producer="2"/>
  <entry in="0" out="61" producer="20"/>
  <entry in="9332" out="10948" producer="2"/>
  <entry in="0" out="44" producer="21"/>
  <entry in="10949" out="11836" producer="2"/>
  <entry in="15386" out="15618" producer="2"/>
  <entry in="0" out="58" producer="22"/>
  <entry in="18740" out="18830" producer="2"/>
  <entry in="18956" out="19600" producer="2"/>
  <entry in="20012" out="20519" producer="2"/>
  <entry in="20929" out="21193" producer="2"/>
  <entry in="0" out="81" producer="23"/>
  <entry in="21194" out="21406" producer="2"/>
  <entry in="0" out="64" producer="24"/>
  <entry in="21407" out="21503" producer="2"/>
  <entry in="0" out="149" producer="25"/>
 </playlist>
 <tractor title="Anonymous Submission" global_feed="1" in="0" out="13303" id="maintractor">
  <property name="meta.volume">1</property>
  <track producer="black_track"/>
  <track hide="video" producer="playlist1"/>
  <track hide="video" producer="playlist2"/>
  <track producer="playlist3"/>
  <track producer="playlist4"/>
  <track producer="playlist5"/>
  <transition id="transition0">
   <property name="a_track">1</property>
   <property name="b_track">2</property>
   <property name="mlt_type">transition</property>
   <property name="mlt_service">mix</property>
   <property name="always_active">1</property>
   <property name="combine">1</property>
   <property name="internal_added">237</property>
  </transition>
  <transition id="transition1">
   <property name="a_track">1</property>
   <property name="b_track">3</property>
   <property name="mlt_type">transition</property>
   <property name="mlt_service">mix</property>
   <property name="always_active">1</property>
   <property name="combine">1</property>
   <property name="internal_added">237</property>
  </transition>
  <transition id="transition2">
   <property name="a_track">1</property>
   <property name="b_track">4</property>
   <property name="mlt_type">transition</property>
   <property name="mlt_service">mix</property>
   <property name="always_active">1</property>
   <property name="combine">1</property>
   <property name="internal_added">237</property>
  </transition>
  <transition id="transition3">
   <property name="a_track">1</property>
   <property name="b_track">5</property>
   <property name="mlt_type">transition</property>
   <property name="mlt_service">mix</property>
   <property name="always_active">1</property>
   <property name="combine">1</property>
   <property name="internal_added">237</property>
  </transition>
  <transition in="202" out="351" id="transition4">
   <property name="a_track">4</property>
   <property name="b_track">5</property>
   <property name="distort">0</property>
   <property name="geometry">0/0:100%x100%:100%</property>
   <property name="mlt_type">transition</property>
   <property name="mlt_service">affine</property>
   <property name="automatic">1</property>
   <property name="force_track">0</property>
   <property name="keyed">1</property>
   <property name="rotate_x">0</property>
   <property name="rotate_y">0</property>
   <property name="rotate_z">0</property>
   <property name="shear_x">0</property>
   <property name="shear_y">0</property>
   <property name="shear_z">0</property>
  </transition>
  <transition in="88" out="201" id="transition5">
   <property name="a_track">4</property>
   <property name="b_track">5</property>
   <property name="distort">0</property>
   <property name="geometry">0/0:100%x100%:100%</property>
   <property name="mlt_type">transition</property>
   <property name="mlt_service">affine</property>
   <property name="automatic">1</property>
   <property name="force_track">0</property>
   <property name="keyed">1</property>
   <property name="rotate_x">0</property>
   <property name="rotate_y">0</property>
   <property name="rotate_z">0</property>
   <property name="shear_x">0</property>
   <property name="shear_y">0</property>
   <property name="shear_z">0</property>
  </transition>
  <transition out="87" id="transition6">
   <property name="a_track">4</property>
   <property name="b_track">5</property>
   <property name="distort">0</property>
   <property name="geometry">0/0:100%x100%:100%</property>
   <property name="mlt_type">transition</property>
   <property name="mlt_service">affine</property>
   <property name="automatic">1</property>
   <property name="force_track">0</property>
   <property name="keyed">1</property>
   <property name="rotate_x">0</property>
   <property name="rotate_y">0</property>
   <property name="rotate_z">0</property>
   <property name="shear_x">0</property>
   <property name="shear_y">0</property>
   <property name="shear_z">0</property>
  </transition>
  <transition in="1784" out="1798" id="transition7">
   <property name="a_track">4</property>
   <property name="b_track">5</property>
   <property name="factory">loader</property>
   <property name="mlt_type">transition</property>
   <property name="mlt_service">luma</property>
   <property name="automatic">1</property>
   <property name="kdenlive_id">dissolve</property>
   <property name="force_track">0</property>
   <property name="reverse">1</property>
  </transition>
  <transition in="3539" out="3614" id="transition8">
   <property name="a_track">4</property>
   <property name="b_track">5</property>
   <property name="distort">0</property>
   <property name="geometry">0/0:100%x100%:100%</property>
   <property name="mlt_type">transition</property>
   <property name="mlt_service">affine</property>
   <property name="automatic">1</property>
   <property name="force_track">0</property>
   <property name="keyed">1</property>
   <property name="rotate_x">0</property>
   <property name="rotate_y">0</property>
   <property name="rotate_z">0</property>
   <property name="shear_x">0</property>
   <property name="shear_y">0</property>
   <property name="shear_z">0</property>
  </transition>
  <transition in="1888" out="1935" id="transition9">
   <property name="a_track">4</property>
   <property name="b_track">5</property>
   <property name="distort">0</property>
   <property name="geometry">0/0:100%x100%:100%</property>
   <property name="mlt_type">transition</property>
   <property name="mlt_service">affine</property>
   <property name="automatic">1</property>
   <property name="force_track">0</property>
   <property name="keyed">1</property>
   <property name="rotate_x">0</property>
   <property name="rotate_y">0</property>
   <property name="rotate_z">0</property>
   <property name="shear_x">0</property>
   <property name="shear_y">0</property>
   <property name="shear_z">0</property>
  </transition>
  <transition in="1405" out="1440" id="transition10">
   <property name="a_track">4</property>
   <property name="b_track">5</property>
   <property name="distort">0</property>
   <property name="geometry">0/0:100%x100%:100%</property>
   <property name="mlt_type">transition</property>
   <property name="mlt_service">affine</property>
   <property name="automatic">1</property>
   <property name="force_track">0</property>
   <property name="keyed">1</property>
   <property name="rotate_x">0</property>
   <property name="rotate_y">0</property>
   <property name="rotate_z">0</property>
   <property name="shear_x">0</property>
   <property name="shear_y">0</property>
   <property name="shear_z">0</property>
  </transition>
  <transition in="3387" out="3440" id="transition11">
   <property name="a_track">4</property>
   <property name="b_track">5</property>
   <property name="distort">0</property>
   <property name="geometry">0/0:100%x100%:100%</property>
   <property name="mlt_type">transition</property>
   <property name="mlt_service">affine</property>
   <property name="automatic">1</property>
   <property name="force_track">0</property>
   <property name="keyed">1</property>
   <property name="rotate_x">0</property>
   <property name="rotate_y">0</property>
   <property name="rotate_z">0</property>
   <property name="shear_x">0</property>
   <property name="shear_y">0</property>
   <property name="shear_z">0</property>
  </transition>
  <transition in="10966" out="11024" id="transition12">
   <property name="a_track">4</property>
   <property name="b_track">5</property>
   <property name="distort">0</property>
   <property name="geometry">0/0:100%x100%:100%</property>
   <property name="mlt_type">transition</property>
   <property name="mlt_service">affine</property>
   <property name="automatic">1</property>
   <property name="force_track">0</property>
   <property name="keyed">1</property>
   <property name="rotate_x">0</property>
   <property name="rotate_y">0</property>
   <property name="rotate_z">0</property>
   <property name="shear_x">0</property>
   <property name="shear_y">0</property>
   <property name="shear_z">0</property>
  </transition>
  <transition in="3282" out="3297" id="transition13">
   <property name="a_track">4</property>
   <property name="b_track">5</property>
   <property name="distort">0</property>
   <property name="geometry">0/0:100%x100%:100%</property>
   <property name="mlt_type">transition</property>
   <property name="mlt_service">affine</property>
   <property name="automatic">1</property>
   <property name="force_track">0</property>
   <property name="keyed">1</property>
   <property name="rotate_x">0</property>
   <property name="rotate_y">0</property>
   <property name="rotate_z">0</property>
   <property name="shear_x">0</property>
   <property name="shear_y">0</property>
   <property name="shear_z">0</property>
  </transition>
  <transition in="352" out="396" id="transition14">
   <property name="a_track">4</property>
   <property name="b_track">5</property>
   <property name="distort">0</property>
   <property name="geometry">0/0:100%x100%:100%</property>
   <property name="mlt_type">transition</property>
   <property name="mlt_service">affine</property>
   <property name="automatic">1</property>
   <property name="force_track">0</property>
   <property name="keyed">1</property>
   <property name="rotate_x">0</property>
   <property name="rotate_y">0</property>
   <property name="rotate_z">0</property>
   <property name="shear_x">0</property>
   <property name="shear_y">0</property>
   <property name="shear_z">0</property>
  </transition>
  <transition in="3003" out="3054" id="transition15">
   <property name="a_track">4</property>
   <property name="b_track">5</property>
   <property name="distort">0</property>
   <property name="geometry">0/0:100%x100%:100%</property>
   <property name="mlt_type">transition</property>
   <property name="mlt_service">affine</property>
   <property name="automatic">1</property>
   <property name="force_track">0</property>
   <property name="keyed">1</property>
   <property name="rotate_x">0</property>
   <property name="rotate_y">0</property>
   <property name="rotate_z">0</property>
   <property name="shear_x">0</property>
   <property name="shear_y">0</property>
   <property name="shear_z">0</property>
  </transition>
  <transition in="12534" out="12615" id="transition16">
   <property name="a_track">4</property>
   <property name="b_track">5</property>
   <property name="distort">0</property>
   <property name="geometry">0/0:100%x100%:100%</property>
   <property name="mlt_type">transition</property>
   <property name="mlt_service">affine</property>
   <property name="automatic">1</property>
   <property name="force_track">0</property>
   <property name="keyed">1</property>
   <property name="rotate_x">0</property>
   <property name="rotate_y">0</property>
   <property name="rotate_z">0</property>
   <property name="shear_x">0</property>
   <property name="shear_y">0</property>
   <property name="shear_z">0</property>
  </transition>
  <transition in="12829" out="12893" id="transition17">
   <property name="a_track">4</property>
   <property name="b_track">5</property>
   <property name="distort">0</property>
   <property name="geometry">0/0:100%x100%:100%</property>
   <property name="mlt_type">transition</property>
   <property name="mlt_service">affine</property>
   <property name="automatic">1</property>
   <property name="force_track">0</property>
   <property name="keyed">1</property>
   <property name="rotate_x">0</property>
   <property name="rotate_y">0</property>
   <property name="rotate_z">0</property>
   <property name="shear_x">0</property>
   <property name="shear_y">0</property>
   <property name="shear_z">0</property>
  </transition>
  <transition in="1108" out="1147" id="transition18">
   <property name="a_track">4</property>
   <property name="b_track">5</property>
   <property name="distort">0</property>
   <property name="geometry">0/0:100%x100%:100%</property>
   <property name="mlt_type">transition</property>
   <property name="mlt_service">affine</property>
   <property name="automatic">1</property>
   <property name="force_track">0</property>
   <property name="keyed">1</property>
   <property name="rotate_x">0</property>
   <property name="rotate_y">0</property>
   <property name="rotate_z">0</property>
   <property name="shear_x">0</property>
   <property name="shear_y">0</property>
   <property name="shear_z">0</property>
  </transition>
  <transition in="9800" out="9844" id="transition19">
   <property name="a_track">4</property>
   <property name="b_track">5</property>
   <property name="distort">0</property>
   <property name="geometry">0/0:100%x100%:100%</property>
   <property name="mlt_type">transition</property>
   <property name="mlt_service">affine</property>
   <property name="automatic">1</property>
   <property name="force_track">0</property>
   <property name="keyed">1</property>
   <property name="rotate_x">0</property>
   <property name="rotate_y">0</property>
   <property name="rotate_z">0</property>
   <property name="shear_x">0</property>
   <property name="shear_y">0</property>
   <property name="shear_z">0</property>
  </transition>
  <transition in="1307" out="1348" id="transition20">
   <property name="a_track">4</property>
   <property name="b_track">5</property>
   <property name="distort">0</property>
   <property name="geometry">0/0:100%x100%:100%</property>
   <property name="mlt_type">transition</property>
   <property name="mlt_service">affine</property>
   <property name="automatic">1</property>
   <property name="force_track">0</property>
   <property name="keyed">1</property>
   <property name="rotate_x">0</property>
   <property name="rotate_y">0</property>
   <property name="rotate_z">0</property>
   <property name="shear_x">0</property>
   <property name="shear_y">0</property>
   <property name="shear_z">0</property>
  </transition>
  <transition in="12991" out="13140" id="transition21">
   <property name="a_track">4</property>
   <property name="b_track">5</property>
   <property name="distort">0</property>
   <property name="geometry">0/0:100%x100%:100%</property>
   <property name="mlt_type">transition</property>
   <property name="mlt_service">affine</property>
   <property name="automatic">1</property>
   <property name="force_track">0</property>
   <property name="keyed">1</property>
   <property name="rotate_x">0</property>
   <property name="rotate_y">0</property>
   <property name="rotate_z">0</property>
   <property name="shear_x">0</property>
   <property name="shear_y">0</property>
   <property name="shear_z">0</property>
  </transition>
  <transition in="3824" out="3885" id="transition22">
   <property name="a_track">4</property>
   <property name="b_track">5</property>
   <property name="distort">0</property>
   <property name="geometry">0/0:100%x100%:100%</property>
   <property name="mlt_type">transition</property>
   <property name="mlt_service">affine</property>
   <property name="automatic">1</property>
   <property name="force_track">0</property>
   <property name="keyed">1</property>
   <property name="rotate_x">0</property>
   <property name="rotate_y">0</property>
   <property name="rotate_z">0</property>
   <property name="shear_x">0</property>
   <property name="shear_y">0</property>
   <property name="shear_z">0</property>
  </transition>
  <transition in="8121" out="8182" id="transition23">
   <property name="a_track">4</property>
   <property name="b_track">5</property>
   <property name="distort">0</property>
   <property name="geometry">0/0:100%x100%:100%</property>
   <property name="mlt_type">transition</property>
   <property name="mlt_service">affine</property>
   <property name="automatic">1</property>
   <property name="force_track">0</property>
   <property name="keyed">1</property>
   <property name="rotate_x">0</property>
   <property name="rotate_y">0</property>
   <property name="rotate_z">0</property>
   <property name="shear_x">0</property>
   <property name="shear_y">0</property>
   <property name="shear_z">0</property>
  </transition>
  <transition in="485" out="530" id="transition24">
   <property name="a_track">4</property>
   <property name="b_track">5</property>
   <property name="distort">0</property>
   <property name="geometry">0/0:100%x100%:100%</property>
   <property name="mlt_type">transition</property>
   <property name="mlt_service">affine</property>
   <property name="automatic">1</property>
   <property name="force_track">0</property>
   <property name="keyed">1</property>
   <property name="rotate_x">0</property>
   <property name="rotate_y">0</property>
   <property name="rotate_z">0</property>
   <property name="shear_x">0</property>
   <property name="shear_y">0</property>
   <property name="shear_z">0</property>
  </transition>
  <transition in="6702" out="6764" id="transition25">
   <property name="a_track">4</property>
   <property name="b_track">5</property>
   <property name="distort">0</property>
   <property name="geometry">0/0:100%x100%:100%</property>
   <property name="mlt_type">transition</property>
   <property name="mlt_service">affine</property>
   <property name="automatic">1</property>
   <property name="force_track">0</property>
   <property name="keyed">1</property>
   <property name="rotate_x">0</property>
   <property name="rotate_y">0</property>
   <property name="rotate_z">0</property>
   <property name="shear_x">0</property>
   <property name="shear_y">0</property>
   <property name="shear_z">0</property>
  </transition>
  <transition in="4667" out="4723" id="transition26">
   <property name="a_track">4</property>
   <property name="b_track">5</property>
   <property name="distort">0</property>
   <property name="geometry">0/0:100%x100%:100%</property>
   <property name="mlt_type">transition</property>
   <property name="mlt_service">affine</property>
   <property name="automatic">1</property>
   <property name="force_track">0</property>
   <property name="keyed">1</property>
   <property name="rotate_x">0</property>
   <property name="rotate_y">0</property>
   <property name="rotate_z">0</property>
   <property name="shear_x">0</property>
   <property name="shear_y">0</property>
   <property name="shear_z">0</property>
  </transition>
  <transition in="2297" out="2345" id="transition27">
   <property name="a_track">4</property>
   <property name="b_track">5</property>
   <property name="distort">0</property>
   <property name="geometry">0/0:100%x100%:100%</property>
   <property name="mlt_type">transition</property>
   <property name="mlt_service">affine</property>
   <property name="automatic">1</property>
   <property name="force_track">0</property>
   <property name="keyed">1</property>
   <property name="rotate_x">0</property>
   <property name="rotate_y">0</property>
   <property name="rotate_z">0</property>
   <property name="shear_x">0</property>
   <property name="shear_y">0</property>
   <property name="shear_z">0</property>
  </transition>
  <transition in="1587" out="1629" id="transition28">
   <property name="a_track">4</property>
   <property name="b_track">5</property>
   <property name="distort">0</property>
   <property name="geometry">0/0:100%x100%:100%</property>
   <property name="mlt_type">transition</property>
   <property name="mlt_service">affine</property>
   <property name="automatic">1</property>
   <property name="force_track">0</property>
   <property name="keyed">1</property>
   <property name="rotate_x">0</property>
   <property name="rotate_y">0</property>
   <property name="rotate_z">0</property>
   <property name="shear_x">0</property>
   <property name="shear_y">0</property>
   <property name="shear_z">0</property>
  </transition>
  <transition in="3102" out="3165" id="transition29">
   <property name="a_track">4</property>
   <property name="b_track">5</property>
   <property name="distort">0</property>
   <property name="geometry">0/0:100%x100%:100%</property>
   <property name="mlt_type">transition</property>
   <property name="mlt_service">affine</property>
   <property name="automatic">1</property>
   <property name="force_track">0</property>
   <property name="keyed">1</property>
   <property name="rotate_x">0</property>
   <property name="rotate_y">0</property>
   <property name="rotate_z">0</property>
   <property name="shear_x">0</property>
   <property name="shear_y">0</property>
   <property name="shear_z">0</property>
  </transition>
 </tractor>
 <kdenlivedoc profile="atsc_720p_30" kdenliveversion="0.9.6" version="0,88" projectfolder="/home/pierre/kdenlive">
  <customeffects/>
  <documentproperties documentid="1453572146236" renderdestination="" renderrescalewidth="320" proxyextension="ts" generateproxy="0" proxyimageminsize="2000" rendertctype="0" verticalzoom="1" renderprofile="MPEG-4/MP3" renderrescaleheight="240" zonein="0" renderrescale="0" renderscanning="0" renderurl="/home/pierre/Desktop/non-graphical user interface for ROI selection/demonstrationmovie.mp4" rendertwopass="0" renderplay="0" position="13303" proxyminsize="1000" renderstartguide="-1" zoom="9" renderratio="0" rendercategory="MPEG-4" zoneout="42" renderzone="0" renderendguide="-1" renderexportaudio="0" proxyparams="-f mpegts -acodec libmp3lame -ac 2 -ab 128k -ar 48000 -vcodec mpeg2video -g 5 -deinterlace -s 480x270 -vb 400k" enableproxy="0" generateimageproxy="0" renderguide="0" rendertcoverlay="0"/>
  <documentmetadata/>
  <documentnotes>&lt;!DOCTYPE HTML PUBLIC "-//W3C//DTD HTML 4.0//EN" "http://www.w3.org/TR/REC-html40/strict.dtd">
&lt;html>&lt;head>&lt;meta name="qrichtext" content="1" />&lt;style type="text/css">
p, li { white-space: pre-wrap; }
&lt;/style>&lt;/head>&lt;body style=" font-family:'Sans Serif'; font-size:8pt; font-weight:400; font-style:normal;">
&lt;p style="-qt-paragraph-type:empty; margin-top:0px; margin-bottom:0px; margin-left:0px; margin-right:0px; -qt-block-indent:0; text-indent:0px;">&lt;br />&lt;/p>&lt;/body>&lt;/html></documentnotes>
  <profileinfo width="1280" display_aspect_den="9" frame_rate_den="1" description="HD 720p 30 fps" height="720" frame_rate_num="30" display_aspect_num="16" progressive="1" sample_aspect_num="1" sample_aspect_den="1"/>
  <tracksinfo>
   <trackinfo blind="1" mute="0" locked="0" trackname="Audio 2" type="audio"/>
   <trackinfo blind="1" mute="0" locked="0" trackname="Audio 1" type="audio"/>
   <trackinfo blind="0" mute="0" locked="0" trackname="Video 3"/>
   <trackinfo blind="0" mute="0" locked="0" trackname="Video 2"/>
   <trackinfo blind="0" mute="0" locked="0" trackname="Video 1"/>
  </tracksinfo>
  <kdenlive_producer audio_max="60" id="1" pix_fmt="yuv420p" default_video="0" fps="23,976" analysisdata="" name="Test.avi" videocodecid="rawvideo" colorspace="709" videocodec="raw video" resource="/home/pierre/Desktop/Test.avi" default_audio="1" audiocodec="PCM signed 16-bit little-endian" duration="3860" file_hash="393c2d57564d9ddee9cd1ac56384e43e" aspect_ratio="1" channels="2" frequency="48000" video_max="0" progressive="1" type="3" frame_size="1280x720" file_size="4289590060"/>
  <kdenlive_producer audio_max="0" id="2" pix_fmt="yuv420p" default_video="0" fps="20" analysisdata="" name="TestX.mp4" videocodecid="h264" colorspace="709" videocodec="H.264 / AVC / MPEG-4 AVC / MPEG-4 part 10" resource="/home/pierre/Desktop/TestX.mp4" default_audio="-1" duration="22018" file_hash="555f0787ad1411060b77d7e92412f628" aspect_ratio="1" video_max="0" progressive="1" type="2" frame_size="1890x1178" file_size="88264598">
   <metaproperty tool="" name="meta.attr.compatible_brands">isomiso2avc1mp41</metaproperty>
   <metaproperty tool="" name="meta.attr.encoder">Lavf54.20.4</metaproperty>
   <metaproperty tool="" name="meta.attr.major_brand">isom</metaproperty>
   <metaproperty tool="" name="meta.attr.minor_version">512</metaproperty>
  </kdenlive_producer>
  <kdenlive_producer duration="150" transparency="1" frame_size="1280x720" thumbnail="100" in="0" analysisdata="" aspect_ratio="0" out="149" xmldata="&lt;kdenlivetitle width=&quot;1280&quot; duration=&quot;150&quot; height=&quot;720&quot; LC_NUMERIC=&quot;de_DE.UTF-8&quot;>&#xa; &lt;item z-index=&quot;0&quot; type=&quot;QGraphicsTextItem&quot;>&#xa;  &lt;position x=&quot;333&quot; y=&quot;308&quot;>&#xa;   &lt;transform>1,0,0,0,1,0,0,0,1&lt;/transform>&#xa;  &lt;/position>&#xa;  &lt;content font-color=&quot;255,255,255,255&quot; font-outline-color=&quot;0,0,0,255&quot; font-pixel-size=&quot;40&quot; font-italic=&quot;0&quot; alignment=&quot;4&quot; font-underline=&quot;0&quot; font-weight=&quot;50&quot; font=&quot;DejaVu Sans&quot; font-outline=&quot;0&quot;>A non-graphical user interface&#xa;for ROI selection&lt;/content>&#xa; &lt;/item>&#xa; &lt;startviewport rect=&quot;0,0,1280,720&quot;/>&#xa; &lt;endviewport rect=&quot;0,0,1280,720&quot;/>&#xa; &lt;background color=&quot;0,0,0,0&quot;/>&#xa;&lt;/kdenlivetitle>&#xa;" type="6" id="3" name="Title clip"/>
  <kdenlive_producer duration="150" transparency="1" frame_size="1280x720" thumbnail="100" in="0" analysisdata="" aspect_ratio="0" out="149" xmldata="&lt;kdenlivetitle width=&quot;1280&quot; duration=&quot;150&quot; height=&quot;720&quot; LC_NUMERIC=&quot;de_DE.UTF-8&quot;>&#xa; &lt;item z-index=&quot;0&quot; type=&quot;QGraphicsTextItem&quot;>&#xa;  &lt;position x=&quot;219,6680891415706&quot; y=&quot;164,4324324323108&quot;>&#xa;   &lt;transform>1,0,0,0,1,0,0,0,1&lt;/transform>&#xa;  &lt;/position>&#xa;  &lt;content font-color=&quot;255,255,255,255&quot; font-outline-color=&quot;0,0,0,255&quot; font-pixel-size=&quot;30&quot; font-italic=&quot;0&quot; font-underline=&quot;0&quot; font-weight=&quot;50&quot; font=&quot;DejaVu Sans&quot; font-outline=&quot;0&quot;>mouse and keystroke recorder&lt;/content>&#xa; &lt;/item>&#xa; &lt;startviewport rect=&quot;0,0,1280,720&quot;/>&#xa; &lt;endviewport rect=&quot;0,0,1280,720&quot;/>&#xa; &lt;background color=&quot;0,0,0,0&quot;/>&#xa;&lt;/kdenlivetitle>&#xa;" type="6" id="4" name="Title clip"/>
  <kdenlive_producer duration="150" transparency="1" frame_size="1280x720" thumbnail="100" in="0" analysisdata="" aspect_ratio="0" out="149" xmldata="&lt;kdenlivetitle width=&quot;1280&quot; duration=&quot;150&quot; height=&quot;720&quot; LC_NUMERIC=&quot;de_DE.UTF-8&quot;>&#xa; &lt;item z-index=&quot;0&quot; type=&quot;QGraphicsTextItem&quot;>&#xa;  &lt;position x=&quot;542&quot; y=&quot;338&quot;>&#xa;   &lt;transform>1,0,0,0,1,0,0,0,1&lt;/transform>&#xa;  &lt;/position>&#xa;  &lt;content font-color=&quot;255,255,255,255&quot; font-outline-color=&quot;0,0,0,255&quot; font-pixel-size=&quot;30&quot; font-italic=&quot;0&quot; font-underline=&quot;0&quot; font-weight=&quot;50&quot; font=&quot;DejaVu Sans&quot; font-outline=&quot;0&quot;>load dataset&lt;/content>&#xa; &lt;/item>&#xa; &lt;startviewport rect=&quot;0,0,1280,720&quot;/>&#xa; &lt;endviewport rect=&quot;0,0,1280,720&quot;/>&#xa; &lt;background color=&quot;0,0,0,0&quot;/>&#xa;&lt;/kdenlivetitle>&#xa;" type="6" id="5" name="Title clip"/>
  <kdenlive_producer duration="150" transparency="1" frame_size="1280x720" thumbnail="100" in="0" analysisdata="" aspect_ratio="0" out="149" xmldata="&lt;kdenlivetitle width=&quot;1280&quot; duration=&quot;150&quot; height=&quot;720&quot; LC_NUMERIC=&quot;de_DE.UTF-8&quot;>&#xa; &lt;item z-index=&quot;0&quot; type=&quot;QGraphicsTextItem&quot;>&#xa;  &lt;position x=&quot;521&quot; y=&quot;338&quot;>&#xa;   &lt;transform>1,0,0,0,1,0,0,0,1&lt;/transform>&#xa;  &lt;/position>&#xa;  &lt;content font-color=&quot;255,255,255,255&quot; font-outline-color=&quot;0,0,0,255&quot; font-pixel-size=&quot;30&quot; font-italic=&quot;0&quot; font-underline=&quot;0&quot; font-weight=&quot;50&quot; font=&quot;DejaVu Sans&quot; font-outline=&quot;0&quot;>calculate offset&lt;/content>&#xa; &lt;/item>&#xa; &lt;startviewport rect=&quot;0,0,1280,720&quot;/>&#xa; &lt;endviewport rect=&quot;0,0,1280,720&quot;/>&#xa; &lt;background color=&quot;0,0,0,0&quot;/>&#xa;&lt;/kdenlivetitle>&#xa;" type="6" id="6" name="Title clip"/>
  <kdenlive_producer duration="150" transparency="1" frame_size="1280x720" thumbnail="100" in="0" analysisdata="" aspect_ratio="0" out="149" xmldata="&lt;kdenlivetitle width=&quot;1280&quot; duration=&quot;150&quot; height=&quot;720&quot; LC_NUMERIC=&quot;de_DE.UTF-8&quot;>&#xa; &lt;item z-index=&quot;0&quot; type=&quot;QGraphicsTextItem&quot;>&#xa;  &lt;position x=&quot;486&quot; y=&quot;338&quot;>&#xa;   &lt;transform>1,0,0,0,1,0,0,0,1&lt;/transform>&#xa;  &lt;/position>&#xa;  &lt;content font-color=&quot;255,255,255,255&quot; font-outline-color=&quot;0,0,0,255&quot; font-pixel-size=&quot;30&quot; font-italic=&quot;0&quot; font-underline=&quot;0&quot; font-weight=&quot;50&quot; font=&quot;DejaVu Sans&quot; font-outline=&quot;0&quot;>calculate dF/F maps&lt;/content>&#xa; &lt;/item>&#xa; &lt;startviewport rect=&quot;0,0,1280,720&quot;/>&#xa; &lt;endviewport rect=&quot;0,0,1280,720&quot;/>&#xa; &lt;background color=&quot;0,0,0,0&quot;/>&#xa;&lt;/kdenlivetitle>&#xa;" type="6" id="7" name="Title clip"/>
  <kdenlive_producer duration="150" transparency="1" frame_size="1280x720" thumbnail="100" in="0" analysisdata="" aspect_ratio="0" out="149" xmldata="&lt;kdenlivetitle width=&quot;1280&quot; duration=&quot;150&quot; height=&quot;720&quot; LC_NUMERIC=&quot;de_DE.UTF-8&quot;>&#xa; &lt;item z-index=&quot;0&quot; type=&quot;QGraphicsTextItem&quot;>&#xa;  &lt;position x=&quot;393&quot; y=&quot;338&quot;>&#xa;   &lt;transform>1,0,0,0,1,0,0,0,1&lt;/transform>&#xa;  &lt;/position>&#xa;  &lt;content font-color=&quot;255,255,255,255&quot; font-outline-color=&quot;0,0,0,255&quot; font-pixel-size=&quot;30&quot; font-italic=&quot;0&quot; font-underline=&quot;0&quot; font-weight=&quot;50&quot; font=&quot;DejaVu Sans&quot; font-outline=&quot;0&quot;>select F0 and response windows&lt;/content>&#xa; &lt;/item>&#xa; &lt;startviewport rect=&quot;0,0,1280,720&quot;/>&#xa; &lt;endviewport rect=&quot;0,0,1280,720&quot;/>&#xa; &lt;background color=&quot;0,0,0,0&quot;/>&#xa;&lt;/kdenlivetitle>&#xa;" type="6" id="8" name="Title clip"/>
  <kdenlive_producer duration="150" transparency="1" frame_size="1280x720" thumbnail="100" in="0" analysisdata="" aspect_ratio="0" out="149" xmldata="&lt;kdenlivetitle width=&quot;1280&quot; duration=&quot;150&quot; height=&quot;720&quot; LC_NUMERIC=&quot;de_DE.UTF-8&quot;>&#xa; &lt;item z-index=&quot;0&quot; type=&quot;QGraphicsTextItem&quot;>&#xa;  &lt;position x=&quot;319&quot; y=&quot;338&quot;>&#xa;   &lt;transform>1,0,0,0,1,0,0,0,1&lt;/transform>&#xa;  &lt;/position>&#xa;  &lt;content font-color=&quot;255,255,255,255&quot; font-outline-color=&quot;0,0,0,255&quot; font-pixel-size=&quot;30&quot; font-italic=&quot;0&quot; font-underline=&quot;0&quot; font-weight=&quot;50&quot; font=&quot;DejaVu Sans&quot; font-outline=&quot;0&quot;>calculate map of local activity correlations&lt;/content>&#xa; &lt;/item>&#xa; &lt;startviewport rect=&quot;0,0,1280,720&quot;/>&#xa; &lt;endviewport rect=&quot;0,0,1280,720&quot;/>&#xa; &lt;background color=&quot;0,0,0,0&quot;/>&#xa;&lt;/kdenlivetitle>&#xa;" type="6" id="9" name="Title clip"/>
  <kdenlive_producer duration="150" transparency="1" frame_size="1280x720" thumbnail="100" in="0" analysisdata="" aspect_ratio="0" out="149" xmldata="&lt;kdenlivetitle width=&quot;1280&quot; duration=&quot;150&quot; height=&quot;720&quot; LC_NUMERIC=&quot;de_DE.UTF-8&quot;>&#xa; &lt;item z-index=&quot;0&quot; type=&quot;QGraphicsTextItem&quot;>&#xa;  &lt;position x=&quot;276&quot; y=&quot;320&quot;>&#xa;   &lt;transform>1,0,0,0,1,0,0,0,1&lt;/transform>&#xa;  &lt;/position>&#xa;  &lt;content font-color=&quot;255,255,255,255&quot; font-outline-color=&quot;0,0,0,255&quot; font-pixel-size=&quot;30&quot; font-italic=&quot;0&quot; alignment=&quot;4&quot; font-underline=&quot;0&quot; font-weight=&quot;50&quot; font=&quot;DejaVu Sans&quot; font-outline=&quot;0&quot;>main part: show anatomy map for ROI selection&#xa;includde keystroke callback functions&lt;/content>&#xa; &lt;/item>&#xa; &lt;startviewport rect=&quot;0,0,1280,720&quot;/>&#xa; &lt;endviewport rect=&quot;0,0,1280,720&quot;/>&#xa; &lt;background color=&quot;0,0,0,0&quot;/>&#xa;&lt;/kdenlivetitle>&#xa;" type="6" id="10" name="Title clip"/>
  <kdenlive_producer duration="150" transparency="1" frame_size="1280x720" thumbnail="100" in="0" analysisdata="" aspect_ratio="0" out="149" xmldata="&lt;kdenlivetitle width=&quot;1280&quot; duration=&quot;150&quot; height=&quot;720&quot; LC_NUMERIC=&quot;de_DE.UTF-8&quot;>&#xa; &lt;item z-index=&quot;0&quot; type=&quot;QGraphicsTextItem&quot;>&#xa;  &lt;position x=&quot;414&quot; y=&quot;320&quot;>&#xa;   &lt;transform>1,0,0,0,1,0,0,0,1&lt;/transform>&#xa;  &lt;/position>&#xa;  &lt;content font-color=&quot;255,255,255,255&quot; font-outline-color=&quot;0,0,0,255&quot; font-pixel-size=&quot;30&quot; font-italic=&quot;0&quot; alignment=&quot;4&quot; font-underline=&quot;0&quot; font-weight=&quot;50&quot; font=&quot;DejaVu Sans&quot; font-outline=&quot;0&quot;>use mouse keys and wheel to&#xa;pan, zoom and zoom out&lt;/content>&#xa; &lt;/item>&#xa; &lt;startviewport rect=&quot;0,0,1280,720&quot;/>&#xa; &lt;endviewport rect=&quot;0,0,1280,720&quot;/>&#xa; &lt;background color=&quot;0,0,0,0&quot;/>&#xa;&lt;/kdenlivetitle>&#xa;" type="6" id="11" name="Title clip"/>
  <kdenlive_producer duration="150" transparency="1" frame_size="1280x720" thumbnail="100" in="0" analysisdata="" aspect_ratio="0" out="149" xmldata="&lt;kdenlivetitle width=&quot;1280&quot; duration=&quot;150&quot; height=&quot;720&quot; LC_NUMERIC=&quot;de_DE.UTF-8&quot;>&#xa; &lt;item z-index=&quot;0&quot; type=&quot;QGraphicsTextItem&quot;>&#xa;  &lt;position x=&quot;298&quot; y=&quot;338&quot;>&#xa;   &lt;transform>1,0,0,0,1,0,0,0,1&lt;/transform>&#xa;  &lt;/position>&#xa;  &lt;content font-color=&quot;255,255,255,255&quot; font-outline-color=&quot;0,0,0,255&quot; font-pixel-size=&quot;30&quot; font-italic=&quot;0&quot; font-underline=&quot;0&quot; font-weight=&quot;50&quot; font=&quot;DejaVu Sans&quot; font-outline=&quot;0&quot;>show activity maps to facilitate ROI selection&lt;/content>&#xa; &lt;/item>&#xa; &lt;startviewport rect=&quot;0,0,1280,720&quot;/>&#xa; &lt;endviewport rect=&quot;0,0,1280,720&quot;/>&#xa; &lt;background color=&quot;0,0,0,0&quot;/>&#xa;&lt;/kdenlivetitle>&#xa;" type="6" id="12" name="Title clip"/>
  <kdenlive_producer duration="150" transparency="1" frame_size="1280x720" thumbnail="100" in="0" analysisdata="" aspect_ratio="0" out="149" xmldata="&lt;kdenlivetitle width=&quot;1280&quot; duration=&quot;150&quot; height=&quot;720&quot; LC_NUMERIC=&quot;de_DE.UTF-8&quot;>&#xa; &lt;item z-index=&quot;0&quot; type=&quot;QGraphicsTextItem&quot;>&#xa;  &lt;position x=&quot;893,1021885366673&quot; y=&quot;660,1612138454515&quot;>&#xa;   &lt;transform>1,0,0,0,1,0,0,0,1&lt;/transform>&#xa;  &lt;/position>&#xa;  &lt;content font-color=&quot;0,0,0,255&quot; font-pixel-size=&quot;30&quot; font-italic=&quot;0&quot; font-underline=&quot;0&quot; font-weight=&quot;50&quot; font=&quot;DejaVu Sans&quot;>dF/F response map&lt;/content>&#xa; &lt;/item>&#xa; &lt;startviewport rect=&quot;0,0,1280,720&quot;/>&#xa; &lt;endviewport rect=&quot;0,0,1280,720&quot;/>&#xa; &lt;background color=&quot;0,0,0,0&quot;/>&#xa;&lt;/kdenlivetitle>&#xa;" type="6" id="13" name="Title clip"/>
  <kdenlive_producer duration="150" transparency="1" frame_size="1280x720" thumbnail="100" in="0" analysisdata="" aspect_ratio="0" out="149" xmldata="&lt;kdenlivetitle width=&quot;1280&quot; duration=&quot;150&quot; height=&quot;720&quot; LC_NUMERIC=&quot;de_DE.UTF-8&quot;>&#xa; &lt;item z-index=&quot;0&quot; type=&quot;QGraphicsTextItem&quot;>&#xa;  &lt;position x=&quot;419,2735893788659&quot; y=&quot;667,2095779991869&quot;>&#xa;   &lt;transform>1,0,0,0,1,0,0,0,1&lt;/transform>&#xa;  &lt;/position>&#xa;  &lt;content font-color=&quot;0,0,0,255&quot; font-pixel-size=&quot;30&quot; font-italic=&quot;0&quot; font-underline=&quot;0&quot; font-weight=&quot;50&quot; font=&quot;DejaVu Sans&quot;>dF/F response map (maximum of moving window)&lt;/content>&#xa; &lt;/item>&#xa; &lt;startviewport rect=&quot;0,0,1280,720&quot;/>&#xa; &lt;endviewport rect=&quot;0,0,1280,720&quot;/>&#xa; &lt;background color=&quot;0,0,0,0&quot;/>&#xa;&lt;/kdenlivetitle>&#xa;" type="6" id="14" name="Title clip"/>
  <kdenlive_producer duration="150" transparency="1" frame_size="1280x720" thumbnail="100" in="0" analysisdata="" aspect_ratio="0" out="149" xmldata="&lt;kdenlivetitle width=&quot;1280&quot; duration=&quot;150&quot; height=&quot;720&quot; LC_NUMERIC=&quot;de_DE.UTF-8&quot;>&#xa; &lt;item z-index=&quot;0&quot; type=&quot;QGraphicsTextItem&quot;>&#xa;  &lt;position x=&quot;775,4385964912282&quot; y=&quot;665,7017543859649&quot;>&#xa;   &lt;transform>1,0,0,0,1,0,0,0,1&lt;/transform>&#xa;  &lt;/position>&#xa;  &lt;content font-color=&quot;0,0,0,255&quot; font-outline-color=&quot;0,0,0,255&quot; font-pixel-size=&quot;30&quot; font-italic=&quot;0&quot; font-underline=&quot;0&quot; font-weight=&quot;50&quot; font=&quot;DejaVu Sans&quot; font-outline=&quot;0&quot;>map of local correlations&lt;/content>&#xa; &lt;/item>&#xa; &lt;startviewport rect=&quot;0,0,1280,720&quot;/>&#xa; &lt;endviewport rect=&quot;0,0,1280,720&quot;/>&#xa; &lt;background color=&quot;0,0,0,0&quot;/>&#xa;&lt;/kdenlivetitle>&#xa;" type="6" id="15" name="Title clip"/>
  <kdenlive_producer duration="150" transparency="1" frame_size="1280x720" thumbnail="100" in="0" analysisdata="" aspect_ratio="0" out="149" xmldata="&lt;kdenlivetitle width=&quot;1280&quot; duration=&quot;150&quot; height=&quot;720&quot; LC_NUMERIC=&quot;de_DE.UTF-8&quot;>&#xa; &lt;item z-index=&quot;0&quot; type=&quot;QGraphicsTextItem&quot;>&#xa;  &lt;position x=&quot;324&quot; y=&quot;302&quot;>&#xa;   &lt;transform>1,0,0,0,1,0,0,0,1&lt;/transform>&#xa;  &lt;/position>&#xa;  &lt;content font-color=&quot;255,255,255,255&quot; font-outline-color=&quot;0,0,0,255&quot; font-pixel-size=&quot;30&quot; font-italic=&quot;0&quot; alignment=&quot;4&quot; font-underline=&quot;0&quot; font-weight=&quot;50&quot; font=&quot;DejaVu Sans&quot; font-outline=&quot;0&quot;>normally work with two screens:&#xa;one for displaying the map/anatomy&#xa;another for visualizing the extracted data&lt;/content>&#xa; &lt;/item>&#xa; &lt;startviewport rect=&quot;0,0,1280,720&quot;/>&#xa; &lt;endviewport rect=&quot;0,0,1280,720&quot;/>&#xa; &lt;background color=&quot;0,0,0,0&quot;/>&#xa;&lt;/kdenlivetitle>&#xa;" type="6" id="16" name="Title clip"/>
  <kdenlive_producer duration="150" transparency="1" frame_size="1280x720" thumbnail="100" in="0" analysisdata="" aspect_ratio="0" out="149" xmldata="&lt;kdenlivetitle width=&quot;1280&quot; duration=&quot;150&quot; height=&quot;720&quot; LC_NUMERIC=&quot;de_DE.UTF-8&quot;>&#xa; &lt;item z-index=&quot;0&quot; type=&quot;QGraphicsTextItem&quot;>&#xa;  &lt;position x=&quot;288&quot; y=&quot;320&quot;>&#xa;   &lt;transform>1,0,0,0,1,0,0,0,1&lt;/transform>&#xa;  &lt;/position>&#xa;  &lt;content font-color=&quot;255,255,255,255&quot; font-outline-color=&quot;0,0,0,255&quot; font-pixel-size=&quot;30&quot; font-italic=&quot;0&quot; alignment=&quot;4&quot; font-underline=&quot;0&quot; font-weight=&quot;50&quot; font=&quot;DejaVu Sans&quot; font-outline=&quot;0&quot;>use the keys f (freehand), x (correlation-based&#xa;and z (circle ROI) to draw a ROI&lt;/content>&#xa; &lt;/item>&#xa; &lt;startviewport rect=&quot;0,0,1280,720&quot;/>&#xa; &lt;endviewport rect=&quot;0,0,1280,720&quot;/>&#xa; &lt;background color=&quot;0,0,0,0&quot;/>&#xa;&lt;/kdenlivetitle>&#xa;" type="6" id="17" name="Title clip"/>
  <kdenlive_producer duration="150" transparency="1" frame_size="1280x720" thumbnail="100" in="0" analysisdata="" aspect_ratio="0" out="149" xmldata="&lt;kdenlivetitle width=&quot;1280&quot; duration=&quot;150&quot; height=&quot;720&quot; LC_NUMERIC=&quot;de_DE.UTF-8&quot;>&#xa; &lt;item z-index=&quot;0&quot; type=&quot;QGraphicsTextItem&quot;>&#xa;  &lt;position x=&quot;285&quot; y=&quot;320&quot;>&#xa;   &lt;transform>1,0,0,0,1,0,0,0,1&lt;/transform>&#xa;  &lt;/position>&#xa;  &lt;content font-color=&quot;255,255,255,255&quot; font-outline-color=&quot;0,0,0,255&quot; font-pixel-size=&quot;30&quot; font-italic=&quot;0&quot; alignment=&quot;4&quot; font-underline=&quot;0&quot; font-weight=&quot;50&quot; font=&quot;DejaVu Sans&quot; font-outline=&quot;0&quot;>switching between anatomy and activity maps&#xa;facilitates ROI selection&lt;/content>&#xa; &lt;/item>&#xa; &lt;startviewport rect=&quot;0,0,1280,720&quot;/>&#xa; &lt;endviewport rect=&quot;0,0,1280,720&quot;/>&#xa; &lt;background color=&quot;0,0,0,0&quot;/>&#xa;&lt;/kdenlivetitle>&#xa;" type="6" id="18" name="Title clip"/>
  <kdenlive_producer duration="150" transparency="1" frame_size="1280x720" thumbnail="100" in="0" analysisdata="" aspect_ratio="0" out="149" xmldata="&lt;kdenlivetitle width=&quot;1280&quot; duration=&quot;150&quot; height=&quot;720&quot; LC_NUMERIC=&quot;de_DE.UTF-8&quot;>&#xa; &lt;item z-index=&quot;0&quot; type=&quot;QGraphicsTextItem&quot;>&#xa;  &lt;position x=&quot;200&quot; y=&quot;320&quot;>&#xa;   &lt;transform>1,0,0,0,1,0,0,0,1&lt;/transform>&#xa;  &lt;/position>&#xa;  &lt;content font-color=&quot;255,255,255,255&quot; font-pixel-size=&quot;30&quot; font-italic=&quot;0&quot; alignment=&quot;4&quot; font-underline=&quot;0&quot; font-weight=&quot;50&quot; font=&quot;DejaVu Sans&quot;>correlation-based semi-automated ROI selection&#xa;with numbers, the target size of the ROI can be indicated&lt;/content>&#xa; &lt;/item>&#xa; &lt;startviewport rect=&quot;0,0,1280,720&quot;/>&#xa; &lt;endviewport rect=&quot;0,0,1280,720&quot;/>&#xa; &lt;background color=&quot;0,0,0,0&quot;/>&#xa;&lt;/kdenlivetitle>&#xa;" type="6" id="19" name="Title clip"/>
  <kdenlive_producer duration="150" transparency="1" frame_size="1280x720" thumbnail="100" in="0" analysisdata="" aspect_ratio="0" out="149" xmldata="&lt;kdenlivetitle width=&quot;1280&quot; duration=&quot;150&quot; height=&quot;720&quot; LC_NUMERIC=&quot;de_DE.UTF-8&quot;>&#xa; &lt;item z-index=&quot;0&quot; type=&quot;QGraphicsTextItem&quot;>&#xa;  &lt;position x=&quot;309&quot; y=&quot;320&quot;>&#xa;   &lt;transform>1,0,0,0,1,0,0,0,1&lt;/transform>&#xa;  &lt;/position>&#xa;  &lt;content font-color=&quot;255,255,255,255&quot; font-outline-color=&quot;0,0,0,255&quot; font-pixel-size=&quot;30&quot; font-italic=&quot;0&quot; alignment=&quot;4&quot; font-underline=&quot;0&quot; font-weight=&quot;50&quot; font=&quot;DejaVu Sans&quot; font-outline=&quot;0&quot;>circular ROI generation for quick analysis&#xa;numbers give the size of the circular region&lt;/content>&#xa; &lt;/item>&#xa; &lt;startviewport rect=&quot;0,0,1280,720&quot;/>&#xa; &lt;endviewport rect=&quot;0,0,1280,720&quot;/>&#xa; &lt;background color=&quot;0,0,0,0&quot;/>&#xa;&lt;/kdenlivetitle>&#xa;" type="6" id="20" name="Title clip"/>
  <kdenlive_producer duration="150" transparency="1" frame_size="1280x720" thumbnail="100" in="0" analysisdata="" aspect_ratio="0" out="149" xmldata="&lt;kdenlivetitle width=&quot;1280&quot; duration=&quot;150&quot; height=&quot;720&quot; LC_NUMERIC=&quot;de_DE.UTF-8&quot;>&#xa; &lt;item z-index=&quot;0&quot; type=&quot;QGraphicsTextItem&quot;>&#xa;  &lt;position x=&quot;445&quot; y=&quot;302&quot;>&#xa;   &lt;transform>1,0,0,0,1,0,0,0,1&lt;/transform>&#xa;  &lt;/position>&#xa;  &lt;content font-color=&quot;255,255,255,255&quot; font-outline-color=&quot;0,0,0,255&quot; font-pixel-size=&quot;30&quot; font-italic=&quot;0&quot; alignment=&quot;4&quot; font-underline=&quot;0&quot; font-weight=&quot;50&quot; font=&quot;DejaVu Sans&quot; font-outline=&quot;0&quot;>post-modification of ROIs&#xa;deletion (d)&#xa;small translation (g)&lt;/content>&#xa; &lt;/item>&#xa; &lt;startviewport rect=&quot;0,0,1280,720&quot;/>&#xa; &lt;endviewport rect=&quot;0,0,1280,720&quot;/>&#xa; &lt;background color=&quot;0,0,0,0&quot;/>&#xa;&lt;/kdenlivetitle>&#xa;" type="6" id="21" name="Title clip"/>
  <kdenlive_producer duration="150" transparency="1" frame_size="1280x720" thumbnail="100" in="0" analysisdata="" aspect_ratio="0" out="149" xmldata="&lt;kdenlivetitle width=&quot;1280&quot; duration=&quot;150&quot; height=&quot;720&quot; LC_NUMERIC=&quot;de_DE.UTF-8&quot;>&#xa; &lt;item z-index=&quot;0&quot; type=&quot;QGraphicsTextItem&quot;>&#xa;  &lt;position x=&quot;523&quot; y=&quot;338&quot;>&#xa;   &lt;transform>1,0,0,0,1,0,0,0,1&lt;/transform>&#xa;  &lt;/position>&#xa;  &lt;content font-color=&quot;255,255,255,255&quot; font-outline-color=&quot;0,0,0,255&quot; font-pixel-size=&quot;30&quot; font-italic=&quot;0&quot; font-underline=&quot;0&quot; font-weight=&quot;50&quot; font=&quot;DejaVu Sans&quot; font-outline=&quot;0&quot;>customizations&lt;/content>&#xa; &lt;/item>&#xa; &lt;startviewport rect=&quot;0,0,1280,720&quot;/>&#xa; &lt;endviewport rect=&quot;0,0,1280,720&quot;/>&#xa; &lt;background color=&quot;0,0,0,0&quot;/>&#xa;&lt;/kdenlivetitle>&#xa;" type="6" id="22" name="Title clip"/>
  <kdenlive_producer duration="150" transparency="1" frame_size="1280x720" thumbnail="100" in="0" analysisdata="" aspect_ratio="0" out="149" xmldata="&lt;kdenlivetitle width=&quot;1280&quot; duration=&quot;150&quot; height=&quot;720&quot; LC_NUMERIC=&quot;de_DE.UTF-8&quot;>&#xa; &lt;item z-index=&quot;0&quot; type=&quot;QGraphicsTextItem&quot;>&#xa;  &lt;position x=&quot;361&quot; y=&quot;338&quot;>&#xa;   &lt;transform>1,0,0,0,1,0,0,0,1&lt;/transform>&#xa;  &lt;/position>&#xa;  &lt;content font-color=&quot;255,255,255,255&quot; font-outline-color=&quot;0,0,0,255&quot; font-pixel-size=&quot;30&quot; font-italic=&quot;0&quot; font-underline=&quot;0&quot; font-weight=&quot;50&quot; font=&quot;DejaVu Sans&quot; font-outline=&quot;0&quot;>save the data by closing the window&lt;/content>&#xa; &lt;/item>&#xa; &lt;startviewport rect=&quot;0,0,1280,720&quot;/>&#xa; &lt;endviewport rect=&quot;0,0,1280,720&quot;/>&#xa; &lt;background color=&quot;0,0,0,0&quot;/>&#xa;&lt;/kdenlivetitle>&#xa;" type="6" id="23" name="Title clip"/>
  <kdenlive_producer duration="150" transparency="1" frame_size="1280x720" thumbnail="100" in="0" analysisdata="" aspect_ratio="0" out="149" xmldata="&lt;kdenlivetitle width=&quot;1280&quot; duration=&quot;150&quot; height=&quot;720&quot; LC_NUMERIC=&quot;de_DE.UTF-8&quot;>&#xa; &lt;item z-index=&quot;0&quot; type=&quot;QGraphicsTextItem&quot;>&#xa;  &lt;position x=&quot;306&quot; y=&quot;320&quot;>&#xa;   &lt;transform>1,0,0,0,1,0,0,0,1&lt;/transform>&#xa;  &lt;/position>&#xa;  &lt;content font-color=&quot;255,255,255,255&quot; font-outline-color=&quot;0,0,0,255&quot; font-pixel-size=&quot;30&quot; font-italic=&quot;0&quot; alignment=&quot;4&quot; font-underline=&quot;0&quot; font-weight=&quot;50&quot; font=&quot;DejaVu Sans&quot; font-outline=&quot;0&quot;>this saves the ROI map, the dF/F timetraces&#xa;and the raw fluorescence timetraces&lt;/content>&#xa; &lt;/item>&#xa; &lt;startviewport rect=&quot;0,0,1280,720&quot;/>&#xa; &lt;endviewport rect=&quot;0,0,1280,720&quot;/>&#xa; &lt;background color=&quot;0,0,0,0&quot;/>&#xa;&lt;/kdenlivetitle>&#xa;" type="6" id="24" name="Title clip"/>
  <kdenlive_producer duration="150" transparency="1" frame_size="1280x720" thumbnail="100" in="0" analysisdata="" aspect_ratio="0" out="149" xmldata="&lt;kdenlivetitle width=&quot;1280&quot; duration=&quot;150&quot; height=&quot;720&quot; LC_NUMERIC=&quot;de_DE.UTF-8&quot;>&#xa; &lt;item z-index=&quot;0&quot; type=&quot;QGraphicsTextItem&quot;>&#xa;  &lt;position x=&quot;340&quot; y=&quot;338&quot;>&#xa;   &lt;transform>1,0,0,0,1,0,0,0,1&lt;/transform>&#xa;  &lt;/position>&#xa;  &lt;content font-color=&quot;255,255,255,255&quot; font-outline-color=&quot;0,0,0,255&quot; font-pixel-size=&quot;30&quot; font-italic=&quot;0&quot; font-underline=&quot;0&quot; font-weight=&quot;50&quot; font=&quot;DejaVu Sans&quot; font-outline=&quot;0&quot;>any questions? peter.rupprecht@fmi.ch&lt;/content>&#xa; &lt;/item>&#xa; &lt;startviewport rect=&quot;0,0,1280,720&quot;/>&#xa; &lt;endviewport rect=&quot;0,0,1280,720&quot;/>&#xa; &lt;background color=&quot;0,0,0,0&quot;/>&#xa;&lt;/kdenlivetitle>&#xa;" type="6" id="25" name="Title clip"/>
  <kdenlive_producer duration="150" transparency="1" frame_size="1280x720" in="0" analysisdata="" aspect_ratio="0" out="149" xmldata="&lt;kdenlivetitle width=&quot;1280&quot; duration=&quot;150&quot; height=&quot;720&quot; LC_NUMERIC=&quot;de_DE.UTF-8&quot;>&#xa; &lt;item z-index=&quot;1&quot; type=&quot;QGraphicsTextItem&quot;>&#xa;  &lt;position x=&quot;96&quot; y=&quot;230&quot;>&#xa;   &lt;transform>1,0,0,0,1,0,0,0,1&lt;/transform>&#xa;  &lt;/position>&#xa;  &lt;content font-color=&quot;255,255,255,255&quot; font-outline-color=&quot;0,0,0,255&quot; font-pixel-size=&quot;30&quot; font-italic=&quot;0&quot; alignment=&quot;4&quot; font-underline=&quot;0&quot; font-weight=&quot;50&quot; font=&quot;DejaVu Sans&quot; font-outline=&quot;0&quot;>Principle&#xa;&#xa;The anatomy is loaded as a simple imagesc() in Matlab.&#xa;&#xa;Instead of buttons, the user interface consists of callback functions.&#xa;&#xa;This method keeps the program small, transparent and easy to modify.&lt;/content>&#xa; &lt;/item>&#xa; &lt;startviewport rect=&quot;0,0,1280,720&quot;/>&#xa; &lt;endviewport rect=&quot;0,0,1280,720&quot;/>&#xa; &lt;background color=&quot;0,0,0,195&quot;/>&#xa;&lt;/kdenlivetitle>&#xa;" type="6" id="26" name="Title clip"/>
  <kdenlive_producer duration="150" transparency="1" frame_size="1280x720" in="0" analysisdata="" aspect_ratio="0" out="149" xmldata="&lt;kdenlivetitle width=&quot;1280&quot; duration=&quot;150&quot; height=&quot;720&quot; LC_NUMERIC=&quot;de_DE.UTF-8&quot;>&#xa; &lt;item z-index=&quot;1&quot; type=&quot;QGraphicsTextItem&quot;>&#xa;  &lt;position x=&quot;613,280701754386&quot; y=&quot;81,4912280701754&quot;>&#xa;   &lt;transform>1,0,0,0,1,0,0,0,1&lt;/transform>&#xa;  &lt;/position>&#xa;  &lt;content font-color=&quot;255,255,255,255&quot; font-outline-color=&quot;0,0,0,255&quot; font-pixel-size=&quot;30&quot; font-italic=&quot;0&quot; font-underline=&quot;0&quot; font-weight=&quot;50&quot; font=&quot;DejaVu Sans&quot; font-outline=&quot;0&quot;>q&#xa;r&#xa;w&#xa;e&#xa;y&#xa;t&#xa;&#xa;f + freehand drawing&#xa;z + click on neuron&#xa;x + click on neuron&#xa;&#xa;d + click on neuron&#xa;g + click on new centroid of neuron&#xa;&#xa;p + click on ROI&#xa;j&#xa;v + click on ROI used for correlation map&lt;/content>&#xa; &lt;/item>&#xa; &lt;item z-index=&quot;0&quot; type=&quot;QGraphicsTextItem&quot;>&#xa;  &lt;position x=&quot;73,68421052631581&quot; y=&quot;11,31578947368422&quot;>&#xa;   &lt;transform>1,0,0,0,1,0,0,0,1&lt;/transform>&#xa;  &lt;/position>&#xa;  &lt;content font-color=&quot;255,255,255,255&quot; font-outline-color=&quot;0,0,0,255&quot; font-pixel-size=&quot;30&quot; font-italic=&quot;0&quot; font-underline=&quot;0&quot; font-weight=&quot;50&quot; font=&quot;DejaVu Sans&quot; font-outline=&quot;0&quot;>List of most important callbacks:                            &#xa;&#xa;show anatomy&#xa;show anatomy with ROI overlay&#xa;show dF/F map&#xa;show dF/F maximum map&#xa;show local correlations map&#xa;show ROIs&#xa;&#xa;freehand select&#xa;circular ROI select&#xa;correlation-based select&#xa;&#xa;delete ROI&#xa;translate ROI&#xa;&#xa;show timetrace of ROI&#xa;show all timetraces&#xa;show global correlation map&lt;/content>&#xa; &lt;/item>&#xa; &lt;startviewport rect=&quot;0,0,1280,720&quot;/>&#xa; &lt;endviewport rect=&quot;0,0,1280,720&quot;/>&#xa; &lt;background color=&quot;0,0,0,195&quot;/>&#xa;&lt;/kdenlivetitle>&#xa;" type="6" id="27" name="Title clip"/>
  <kdenlive_producer audio_max="60" audiocodec="MP3 (MPEG audio layer 3)" channels="2" duration="10526" frame_size="1280x720" frequency="44100" analysisdata="" file_size="9818240" aspect_ratio="0" file_hash="d3d2a35a1c907d0f26d7f0be0c5c9798" type="1" id="28" name="XX - Six Pack.mp3" resource="/media/pierre/f2acf327-5be3-45a0-8262-ba72038981cf/home/pierre/Data_April2015/Musik/Popmusik und Jazz/Aktuelle Musik/XX - Six Pack.mp3">
   <metaproperty tool="" name="meta.attr.album">Vacuum Pact</metaproperty>
   <metaproperty tool="" name="meta.attr.artist">XX</metaproperty>
   <metaproperty tool="" name="meta.attr.date">2006</metaproperty>
   <metaproperty tool="" name="meta.attr.encoded_by">tunebite</metaproperty>
   <metaproperty tool="" name="meta.attr.genre">Alternative</metaproperty>
   <metaproperty tool="" name="meta.attr.title">Six Pack</metaproperty>
   <metaproperty tool="" name="meta.attr.track">5</metaproperty>
  </kdenlive_producer>
  <kdenlive_producer audio_max="55" audiocodec="MP3 (MPEG audio layer 3)" channels="2" duration="7846" frame_size="1280x720" frequency="44100" analysisdata="" file_size="7268480" aspect_ratio="0" file_hash="97eaa64b518e3adb360c284fceefe34a" type="1" id="29" name="XX - Fifth Down.mp3" resource="/media/pierre/f2acf327-5be3-45a0-8262-ba72038981cf/home/pierre/Data_April2015/Musik/Popmusik und Jazz/Aktuelle Musik/XX - Fifth Down.mp3">
   <metaproperty tool="" name="meta.attr.album">Vacuum Pact</metaproperty>
   <metaproperty tool="" name="meta.attr.artist">XX</metaproperty>
   <metaproperty tool="" name="meta.attr.date">2006</metaproperty>
   <metaproperty tool="" name="meta.attr.encoded_by">tunebite</metaproperty>
   <metaproperty tool="" name="meta.attr.genre">Alternative</metaproperty>
   <metaproperty tool="" name="meta.attr.title">Fifth Down</metaproperty>
   <metaproperty tool="" name="meta.attr.track">4</metaproperty>
  </kdenlive_producer>
  <kdenlive_producer audio_max="63" audiocodec="MP3 (MPEG audio layer 3)" channels="2" duration="6062" frame_size="1280x720" frequency="44100" analysisdata="" file_size="5734528" aspect_ratio="0" file_hash="2e5a224624b3355ee73bd52cab5ac6e9" type="1" id="30" name="XX - Crystalised.mp3" resource="/media/pierre/f2acf327-5be3-45a0-8262-ba72038981cf/home/pierre/Data_April2015/Musik/Popmusik und Jazz/Aktuelle Musik/XX - Crystalised.mp3">
   <metaproperty tool="" name="meta.attr.album">xx</metaproperty>
   <metaproperty tool="" name="meta.attr.artist">XX</metaproperty>
   <metaproperty tool="" name="meta.attr.date">2009</metaproperty>
   <metaproperty tool="" name="meta.attr.encoded_by">tunebite</metaproperty>
   <metaproperty tool="" name="meta.attr.genre">Rock</metaproperty>
   <metaproperty tool="" name="meta.attr.title">Crystalised</metaproperty>
   <metaproperty tool="" name="meta.attr.track">3</metaproperty>
  </kdenlive_producer>
  <kdenlive_producer audio_max="58" audiocodec="MP3 (MPEG audio layer 3)" channels="2" duration="6391" frame_size="1280x720" frequency="44100" analysisdata="" file_size="6606976" aspect_ratio="0" file_hash="2d0056bd15d574e1e7da441a81a9b5f7" type="1" id="31" name="XX - Churchless.mp3" resource="/media/pierre/f2acf327-5be3-45a0-8262-ba72038981cf/home/pierre/Data_April2015/Musik/Popmusik und Jazz/Aktuelle Musik/XX - Churchless.mp3">
   <metaproperty tool="" name="meta.attr.album">Vacuum Pact</metaproperty>
   <metaproperty tool="" name="meta.attr.artist">XX</metaproperty>
   <metaproperty tool="" name="meta.attr.date">2006</metaproperty>
   <metaproperty tool="" name="meta.attr.encoded_by">tunebite</metaproperty>
   <metaproperty tool="" name="meta.attr.genre">Alternative</metaproperty>
   <metaproperty tool="" name="meta.attr.title">Churchless</metaproperty>
   <metaproperty tool="" name="meta.attr.track">13</metaproperty>
  </kdenlive_producer>
  <kdenlive_producer audio_max="57" audiocodec="MP3 (MPEG audio layer 3)" channels="2" duration="3404" frame_size="1280x720" frequency="44100" analysisdata="" file_size="3221632" aspect_ratio="0" file_hash="eee72c65230ff6828c7a7382b5064522" type="1" id="32" name="XX - Space.mp3" resource="/media/pierre/f2acf327-5be3-45a0-8262-ba72038981cf/home/pierre/Data_April2015/Musik/Popmusik und Jazz/Aktuelle Musik/XX - Space.mp3">
   <metaproperty tool="" name="meta.attr.album">Vacuum Pact</metaproperty>
   <metaproperty tool="" name="meta.attr.artist">XX</metaproperty>
   <metaproperty tool="" name="meta.attr.date">2006</metaproperty>
   <metaproperty tool="" name="meta.attr.encoded_by">tunebite</metaproperty>
   <metaproperty tool="" name="meta.attr.genre">Alternative</metaproperty>
   <metaproperty tool="" name="meta.attr.title">Space</metaproperty>
   <metaproperty tool="" name="meta.attr.track">11</metaproperty>
  </kdenlive_producer>
  <markers/>
  <groups/>
 </kdenlivedoc>
</mlt>
